Newsreader-TextRegular.ufo
<glyph name="exclam" format="2">
  <advance width="517"/>
  <unicode hex="0021"/>
  <guideline x="308.0" y="1281" angle="2.2025981617658053" identifier="euwt66G7V5"/>
  <outline>
    <contour>
      <point x="343.0" y="1319.0" type="line" smooth="yes"/>
      <point x="344.0" y="1347.0"/>
      <point x="302.0" y="1360.0"/>
      <point x="260.0" y="1360.0" type="curve" smooth="yes"/>
      <point x="218.0" y="1360.0"/>
      <point x="176.0" y="1347.0"/>
      <point x="177.0" y="1319.0" type="curve" smooth="yes"/>
      <point x="181.0" y="1154.0" type="line" smooth="yes"/>
      <point x="184.0" y="1019.0"/>
      <point x="216.0" y="748.0"/>
      <point x="230.0" y="396.0" type="curve"/>
      <point x="290.0" y="396.0" type="line"/>
      <point x="304.0" y="748.0"/>
      <point x="336.0" y="1019.0"/>
      <point x="339.0" y="1154.0" type="curve" smooth="yes"/>
    </contour>
    <contour>
      <point x="258.0" y="224.0" type="curve" smooth="yes"/>
      <point x="188.0" y="224.0"/>
      <point x="137.0" y="171.0"/>
      <point x="137.0" y="105.0" type="curve" smooth="yes"/>
      <point x="137.0" y="39.0"/>
      <point x="188.0" y="-14.0"/>
      <point x="258.0" y="-14.0" type="curve" smooth="yes"/>
      <point x="328.0" y="-14.0"/>
      <point x="379.0" y="39.0"/>
      <point x="379.0" y="105.0" type="curve" smooth="yes"/>
      <point x="379.0" y="171.0"/>
      <point x="328.0" y="224.0"/>
    </contour>
  </outline>
</glyph>
<glyph name="quotesingle" format="2">
  <advance width="379"/>
  <unicode hex="0027"/>
  <outline>
    <contour>
      <point x="150.0" y="862.0" type="line"/>
      <point x="228.0" y="862.0" type="line"/>
      <point x="283.0" y="1292.0" type="line"/>
      <point x="283.0" y="1340.0" type="line"/>
      <point x="97.0" y="1340.0" type="line"/>
      <point x="97.0" y="1292.0" type="line"/>
    </contour>
  </outline>
</glyph>
<glyph name="parenleft" format="2">
  <advance width="542"/>
  <unicode hex="0028"/>
  <outline>
    <contour>
      <point x="238.0" y="572.0" type="curve" smooth="yes"/>
      <point x="238.0" y="823.0"/>
      <point x="277.6963393465891" y="1062.1141429545426"/>
      <point x="482.0" y="1389.0" type="curve"/>
      <point x="438.0" y="1419.0" type="line"/>
      <point x="168.1164183386714" y="1075.8766359547421"/>
      <point x="85.0" y="876.0"/>
      <point x="85.0" y="572.0" type="curve" smooth="yes"/>
      <point x="85.0" y="268.0"/>
      <point x="168.1164183386714" y="68.12336404525792"/>
      <point x="438.0" y="-275.0" type="curve"/>
      <point x="482.0" y="-245.0" type="line"/>
      <point x="277.6963393465891" y="81.88585704545744"/>
      <point x="238.0" y="321.0"/>
    </contour>
  </outline>
</glyph>
<glyph name="asterisk" format="2">
  <advance width="859"/>
  <unicode hex="002A"/>
  <outline>
    <contour>
      <point x="589.0" y="717.0" type="line"/>
      <point x="516.0" y="969.0" type="line"/>
      <point x="775.0" y="1017.0" type="line"/>
      <point x="771.0" y="1074.0" type="line"/>
      <point x="507.0" y="1082.0" type="line"/>
      <point x="542.0" y="1344.0" type="line"/>
      <point x="487.0" y="1357.0" type="line"/>
      <point x="398.0" y="1109.0" type="line"/>
      <point x="160.0" y="1223.0" type="line"/>
      <point x="129.0" y="1175.0" type="line"/>
      <point x="338.0" y="1013.0" type="line"/>
      <point x="157.0" y="822.0" type="line"/>
      <point x="193.0" y="778.0" type="line"/>
      <point x="411.0" y="926.0" type="line"/>
      <point x="536.0" y="694.0" type="line"/>
    </contour>
  </outline>
</glyph>
<glyph name="hyphen" format="2">
  <advance width="685"/>
  <unicode hex="002D"/>
  <outline>
    <contour>
      <point x="122.0" y="501.0" type="line"/>
      <point x="122.0" y="371.0" type="line"/>
      <point x="563.0" y="371.0" type="line"/>
      <point x="563.0" y="501.0" type="line"/>
    </contour>
  </outline>
</glyph>
<glyph name="slash" format="2">
  <advance width="784"/>
  <unicode hex="002F"/>
  <outline>
    <contour>
      <point x="55.0" y="0.0" type="line"/>
      <point x="168.0" y="0.0" type="line"/>
      <point x="728.0" y="1340.0" type="line"/>
      <point x="615.0" y="1340.0" type="line"/>
    </contour>
  </outline>
</glyph>
<glyph name="colon" format="2">
  <advance width="484"/>
  <unicode hex="003A"/>
  <outline>
    <contour>
      <point x="242.0" y="224.0" type="curve" smooth="yes"/>
      <point x="172.0" y="224.0"/>
      <point x="121.0" y="171.0"/>
      <point x="121.0" y="105.0" type="curve" smooth="yes"/>
      <point x="121.0" y="39.0"/>
      <point x="172.0" y="-14.0"/>
      <point x="242.0" y="-14.0" type="curve" smooth="yes"/>
      <point x="312.0" y="-14.0"/>
      <point x="363.0" y="39.0"/>
      <point x="363.0" y="105.0" type="curve" smooth="yes"/>
      <point x="363.0" y="171.0"/>
      <point x="312.0" y="224.0"/>
    </contour>
    <contour>
      <point x="242.0" y="863.0" type="curve" smooth="yes"/>
      <point x="172.0" y="863.0"/>
      <point x="121.0" y="810.0"/>
      <point x="121.0" y="744.0" type="curve" smooth="yes"/>
      <point x="121.0" y="678.0"/>
      <point x="172.0" y="625.0"/>
      <point x="242.0" y="625.0" type="curve" smooth="yes"/>
      <point x="312.0" y="625.0"/>
      <point x="363.0" y="678.0"/>
      <point x="363.0" y="744.0" type="curve" smooth="yes"/>
      <point x="363.0" y="810.0"/>
      <point x="312.0" y="863.0"/>
    </contour>
  </outline>
</glyph>
<glyph name="question" format="2">
  <advance width="820"/>
  <unicode hex="003F"/>
  <outline>
    <contour>
      <point x="283.0" y="1360.0" type="curve" smooth="yes"/>
      <point x="139.0" y="1360.0"/>
      <point x="59.0" y="1317.0"/>
      <point x="59.0" y="1248.0" type="curve" smooth="yes"/>
      <point x="59.0" y="1199.0"/>
      <point x="100.0" y="1159.0"/>
      <point x="156.0" y="1159.0" type="curve" smooth="yes"/>
      <point x="253.0" y="1159.0"/>
      <point x="261.0" y="1256.0"/>
      <point x="390.0" y="1256.0" type="curve" smooth="yes"/>
      <point x="538.0" y="1256.0"/>
      <point x="639.0" y="1158.0"/>
      <point x="639.0" y="988.0" type="curve" smooth="yes"/>
      <point x="639.0" y="826.0"/>
      <point x="512.0" y="733.0"/>
      <point x="240.0" y="754.0" type="curve"/>
      <point x="313.0" y="396.0" type="line"/>
      <point x="356.0" y="396.0" type="line"/>
      <point x="356.0" y="739.0" type="line"/>
      <point x="293.0" y="626.0" type="line"/>
      <point x="636.0" y="614.0"/>
      <point x="738.0" y="750.0"/>
      <point x="738.0" y="939.0" type="curve" smooth="yes"/>
      <point x="738.0" y="1212.0"/>
      <point x="524.0" y="1360.0"/>
    </contour>
    <contour>
      <point x="344.0" y="224.0" type="curve" smooth="yes"/>
      <point x="274.0" y="224.0"/>
      <point x="223.0" y="171.0"/>
      <point x="223.0" y="105.0" type="curve" smooth="yes"/>
      <point x="223.0" y="39.0"/>
      <point x="274.0" y="-14.0"/>
      <point x="344.0" y="-14.0" type="curve" smooth="yes"/>
      <point x="414.0" y="-14.0"/>
      <point x="465.0" y="39.0"/>
      <point x="465.0" y="105.0" type="curve" smooth="yes"/>
      <point x="465.0" y="171.0"/>
      <point x="414.0" y="224.0"/>
    </contour>
  </outline>
</glyph>
<glyph name="at" format="2">
  <advance width="1756"/>
  <unicode hex="0040"/>
  <guideline x="858.0" y="199.0" angle="0" identifier="h2ED7rbafF"/>
  <outline>
    <contour>
      <point x="1218.0" y="198.0" type="curve" smooth="yes"/>
      <point x="1483.0" y="198.0"/>
      <point x="1706.0" y="438.0"/>
      <point x="1706.0" y="772.0" type="curve" smooth="yes"/>
      <point x="1706.0" y="1143.0"/>
      <point x="1440.0" y="1419.0"/>
      <point x="986.0" y="1419.0" type="curve" smooth="yes"/>
      <point x="446.0" y="1419.0"/>
      <point x="81.0" y="1015.0"/>
      <point x="81.0" y="497.0" type="curve" smooth="yes"/>
      <point x="81.0" y="20.0"/>
      <point x="408.0" y="-256.0"/>
      <point x="893.0" y="-256.0" type="curve" smooth="yes"/>
      <point x="1144.0" y="-256.0"/>
      <point x="1346.0" y="-185.0"/>
      <point x="1521.0" y="-64.0" type="curve"/>
      <point x="1479.0" y="0.0" type="line"/>
      <point x="1304.0" y="-125.0"/>
      <point x="1102.0" y="-171.0"/>
      <point x="922.0" y="-171.0" type="curve" smooth="yes"/>
      <point x="492.0" y="-171.0"/>
      <point x="232.0" y="87.0"/>
      <point x="232.0" y="512.0" type="curve" smooth="yes"/>
      <point x="232.0" y="997.0"/>
      <point x="509.0" y="1338.0"/>
      <point x="979.0" y="1338.0" type="curve" smooth="yes"/>
      <point x="1339.0" y="1338.0"/>
      <point x="1563.0" y="1081.0"/>
      <point x="1563.0" y="744.0" type="curve" smooth="yes"/>
      <point x="1563.0" y="432.0"/>
      <point x="1409.0" y="267.0"/>
      <point x="1248.0" y="267.0" type="curve" smooth="yes"/>
      <point x="1186.0" y="267.0"/>
      <point x="1138.0" y="301.0"/>
      <point x="1138.0" y="391.0" type="curve" smooth="yes"/>
      <point x="1138.0" y="426.0"/>
      <point x="1145.0" y="469.0"/>
      <point x="1172.0" y="554.0" type="curve" smooth="yes"/>
      <point x="1316.0" y="999.0" type="line"/>
      <point x="1169.0" y="999.0" type="line"/>
      <point x="1143.0" y="918.0" type="line"/>
      <point x="1061.0" y="663.0" type="line" smooth="yes"/>
      <point x="997.0" y="463.0"/>
      <point x="823.0" y="308.0"/>
      <point x="743.0" y="308.0" type="curve" smooth="yes"/>
      <point x="697.0" y="308.0"/>
      <point x="666.0" y="337.0"/>
      <point x="666.0" y="390.0" type="curve" smooth="yes"/>
      <point x="666.0" y="586.0"/>
      <point x="854.0" y="936.0"/>
      <point x="1048.0" y="936.0" type="curve" smooth="yes"/>
      <point x="1094.0" y="936.0"/>
      <point x="1121.0" y="907.0"/>
      <point x="1132.0" y="877.0" type="curve"/>
      <point x="1171.0" y="928.0" type="line"/>
      <point x="1130.0" y="972.0"/>
      <point x="1090.0" y="1002.0"/>
      <point x="1020.0" y="1002.0" type="curve" smooth="yes"/>
      <point x="722.0" y="1002.0"/>
      <point x="498.0" y="604.0"/>
      <point x="498.0" y="378.0" type="curve" smooth="yes"/>
      <point x="498.0" y="249.0"/>
      <point x="569.0" y="198.0"/>
      <point x="673.0" y="198.0" type="curve" smooth="yes"/>
      <point x="769.0" y="198.0"/>
      <point x="890.0" y="269.0"/>
      <point x="1065.0" y="552.0" type="curve"/>
      <point x="1030.0" y="552.0" type="line"/>
      <point x="1013.0" y="490.0" type="line" smooth="yes"/>
      <point x="1002.0" y="451.0"/>
      <point x="997.0" y="415.0"/>
      <point x="997.0" y="384.0" type="curve" smooth="yes"/>
      <point x="997.0" y="257.0"/>
      <point x="1085.0" y="198.0"/>
    </contour>
  </outline>
</glyph>
<glyph name="H" format="2">
  <advance width="1559"/>
  <unicode hex="0048"/>
  <anchor x="779.0" y="1340.0" name="UCtop"/>
  <anchor x="779.0" y="0" name="bottom"/>
  <outline>
    <contour>
      <point x="403.0" y="91.0" type="line"/>
      <point x="403.0" y="1249.0" type="line"/>
      <point x="561.0" y="1301.0" type="line"/>
      <point x="561.0" y="1340.0" type="line"/>
      <point x="85.0" y="1340.0" type="line"/>
      <point x="85.0" y="1301.0" type="line"/>
      <point x="243.0" y="1249.0" type="line"/>
      <point x="243.0" y="91.0" type="line"/>
      <point x="85.0" y="39.0" type="line"/>
      <point x="85.0" y="0.0" type="line"/>
      <point x="561.0" y="0.0" type="line"/>
      <point x="561.0" y="39.0" type="line"/>
    </contour>
    <contour>
      <point x="1316.0" y="91.0" type="line"/>
      <point x="1316.0" y="1249.0" type="line"/>
      <point x="1474.0" y="1301.0" type="line"/>
      <point x="1474.0" y="1340.0" type="line"/>
      <point x="998.0" y="1340.0" type="line"/>
      <point x="998.0" y="1301.0" type="line"/>
      <point x="1156.0" y="1249.0" type="line"/>
      <point x="1156.0" y="91.0" type="line"/>
      <point x="998.0" y="39.0" type="line"/>
      <point x="998.0" y="0.0" type="line"/>
      <point x="1474.0" y="0.0" type="line"/>
      <point x="1474.0" y="39.0" type="line"/>
    </contour>
    <contour>
      <point x="303.0" y="636.0" type="line"/>
      <point x="1256.0" y="636.0" type="line"/>
      <point x="1256.0" y="730.0" type="line"/>
      <point x="303.0" y="730.0" type="line"/>
    </contour>
  </outline>
</glyph>
<glyph name="I" format="2">
  <advance width="646"/>
  <unicode hex="0049"/>
  <anchor x="323.0" y="1340.0" name="UCtop"/>
  <anchor x="503.0" y="0" name="right"/>
  <anchor x="323.0" y="0" name="bottom"/>
  <outline>
    <contour>
      <point x="561.0" y="39.0" type="line"/>
      <point x="403.0" y="91.0" type="line"/>
      <point x="403.0" y="1249.0" type="line"/>
      <point x="561.0" y="1301.0" type="line"/>
      <point x="561.0" y="1340.0" type="line"/>
      <point x="85.0" y="1340.0" type="line"/>
      <point x="85.0" y="1301.0" type="line"/>
      <point x="243.0" y="1249.0" type="line"/>
      <point x="243.0" y="91.0" type="line"/>
      <point x="85.0" y="39.0" type="line"/>
      <point x="85.0" y="0.0" type="line"/>
      <point x="561.0" y="0.0" type="line"/>
    </contour>
  </outline>
</glyph>
<glyph name="J" format="2">
  <advance width="844"/>
  <unicode hex="004A"/>
  <guideline x="564.0" y="1249" angle="175.6012946450045" identifier="geEqt1yVdN"/>
  <anchor x="549.0" y="1340.0" name="UCtop"/>
  <anchor x="399.0" y="0" name="bottom"/>
  <outline>
    <contour>
      <point x="632.0" y="430.0" type="curve" smooth="yes"/>
      <point x="629.0" y="1249.0" type="line"/>
      <point x="786.0" y="1301.0" type="line"/>
      <point x="786.0" y="1340.0" type="line"/>
      <point x="311.0" y="1340.0" type="line"/>
      <point x="311.0" y="1301.0" type="line"/>
      <point x="469.0" y="1249.0" type="line"/>
      <point x="469.0" y="345.0" type="line" smooth="yes"/>
      <point x="469.0" y="150.0"/>
      <point x="393.0" y="78.0"/>
      <point x="298.0" y="78.0" type="curve" smooth="yes"/>
      <point x="211.0" y="78.0"/>
      <point x="144.0" y="170.0"/>
      <point x="96.0" y="170.0" type="curve" smooth="yes"/>
      <point x="38.0" y="170.0"/>
      <point x="12.0" y="132.0"/>
      <point x="12.0" y="88.0" type="curve" smooth="yes"/>
      <point x="12.0" y="22.0"/>
      <point x="80.0" y="-20.0"/>
      <point x="177.0" y="-20.0" type="curve" smooth="yes"/>
      <point x="424.0" y="-20.0"/>
      <point x="632.0" y="144.0"/>
    </contour>
  </outline>
</glyph>
<glyph name="Y" format="2">
  <advance width="1327"/>
  <unicode hex="0059"/>
  <anchor x="683.0" y="1340.0" name="UCtop"/>
  <anchor x="683.0" y="0" name="bottom"/>
  <outline>
    <contour>
      <point x="137.0" y="1247.0" type="line"/>
      <point x="606.0" y="581.0" type="line"/>
      <point x="606.0" y="91.0" type="line"/>
      <point x="448.0" y="39.0" type="line"/>
      <point x="448.0" y="0.0" type="line"/>
      <point x="924.0" y="0.0" type="line"/>
      <point x="924.0" y="39.0" type="line"/>
      <point x="766.0" y="91.0" type="line"/>
      <point x="766.0" y="588.0" type="line"/>
      <point x="1164.0" y="1249.0" type="line"/>
      <point x="1317.0" y="1301.0" type="line"/>
      <point x="1317.0" y="1340.0" type="line"/>
      <point x="889.0" y="1340.0" type="line"/>
      <point x="889.0" y="1301.0" type="line"/>
      <point x="1052.0" y="1249.0" type="line"/>
      <point x="706.0" y="626.0" type="line"/>
      <point x="769.0" y="624.0" type="line"/>
      <point x="336.0" y="1249.0" type="line"/>
      <point x="502.0" y="1301.0" type="line"/>
      <point x="502.0" y="1340.0" type="line"/>
      <point x="-11.0" y="1340.0" type="line"/>
      <point x="-11.0" y="1301.0" type="line"/>
    </contour>
  </outline>
</glyph>
<glyph name="bracketleft" format="2">
  <advance width="634"/>
  <unicode hex="005B"/>
  <outline>
    <contour>
      <point x="187.0" y="-258.0" type="line"/>
      <point x="605.0" y="-258.0" type="line"/>
      <point x="605.0" y="-188.0" type="line"/>
      <point x="324.0" y="-188.0" type="line"/>
      <point x="324.0" y="1329.0" type="line"/>
      <point x="605.0" y="1329.0" type="line"/>
      <point x="605.0" y="1399.0" type="line"/>
      <point x="187.0" y="1399.0" type="line"/>
    </contour>
  </outline>
</glyph>
<glyph name="asciicircum" format="2">
  <advance width="1000"/>
  <unicode hex="005E"/>
  <guideline x="503" y="1246" angle="67.29316685461875" identifier="xLWgQyvl5X"/>
  <outline>
    <contour>
      <point x="495.0" y="1246.0" type="line"/>
      <point x="766.0" y="592.0" type="line"/>
      <point x="856.0" y="592.0" type="line"/>
      <point x="541.0" y="1340.0" type="line"/>
      <point x="457.0" y="1340.0" type="line"/>
      <point x="144.0" y="592.0" type="line"/>
      <point x="234.0" y="592.0" type="line"/>
      <point x="503.0" y="1246.0" type="line"/>
    </contour>
  </outline>
</glyph>
<glyph name="i" format="2">
  <advance width="534"/>
  <unicode hex="0069"/>
  <anchor x="265.0" y="1399" name="top"/>
  <anchor x="278.0" y="0" name="bottom"/>
  <anchor x="455.0" y="0" name="right"/>
  <outline>
    <contour>
      <point x="267.0" y="1181.0" type="curve" smooth="yes"/>
      <point x="338.0" y="1181.0"/>
      <point x="387.0" y="1233.0"/>
      <point x="387.0" y="1300.0" type="curve" smooth="yes"/>
      <point x="387.0" y="1367.0"/>
      <point x="338.0" y="1419.0"/>
      <point x="267.0" y="1419.0" type="curve" smooth="yes"/>
      <point x="196.0" y="1419.0"/>
      <point x="147.0" y="1367.0"/>
      <point x="147.0" y="1300.0" type="curve" smooth="yes"/>
      <point x="147.0" y="1233.0"/>
      <point x="196.0" y="1181.0"/>
    </contour>
    <contour>
      <point x="356.0" y="872.0" type="line"/>
      <point x="338.0" y="872.0" type="line"/>
      <point x="56.0" y="795.0" type="line"/>
      <point x="56.0" y="764.0" type="line"/>
      <point x="117.0" y="745.0"/>
      <point x="182.0" y="710.0"/>
      <point x="204.0" y="686.0" type="curve"/>
      <point x="204.0" y="85.0" type="line"/>
      <point x="52.0" y="37.0" type="line"/>
      <point x="52.0" y="0.0" type="line"/>
      <point x="505.0" y="0.0" type="line"/>
      <point x="505.0" y="37.0" type="line"/>
      <point x="350.0" y="85.0" type="line"/>
      <point x="350.0" y="710.0" type="line"/>
    </contour>
  </outline>
</glyph>
<glyph name="j" format="2">
  <advance width="469"/>
  <unicode hex="006A"/>
  <guideline x="217.0" y="-206" angle="4.398705354995532" identifier="llxF5AtisT"/>
  <anchor x="244.0" y="1399" name="top"/>
  <anchor x="244.0" y="-510" name="bottom"/>
  <outline>
    <contour>
      <point x="244.0" y="1181.0" type="curve" smooth="yes"/>
      <point x="315.0" y="1181.0"/>
      <point x="364.0" y="1233.0"/>
      <point x="364.0" y="1300.0" type="curve" smooth="yes"/>
      <point x="364.0" y="1367.0"/>
      <point x="315.0" y="1419.0"/>
      <point x="244.0" y="1419.0" type="curve" smooth="yes"/>
      <point x="173.0" y="1419.0"/>
      <point x="124.0" y="1367.0"/>
      <point x="124.0" y="1300.0" type="curve" smooth="yes"/>
      <point x="124.0" y="1233.0"/>
      <point x="173.0" y="1181.0"/>
    </contour>
    <contour>
      <point x="181.0" y="686.0" type="curve"/>
      <point x="181.0" y="-154.0" type="line" smooth="yes"/>
      <point x="181.0" y="-271.0"/>
      <point x="160.0" y="-323.0"/>
      <point x="8.0" y="-478.0" type="curve"/>
      <point x="55.0" y="-530.0" type="line"/>
      <point x="306.0" y="-323.0"/>
      <point x="327.0" y="-294.0"/>
      <point x="327.0" y="-106.0" type="curve" smooth="yes"/>
      <point x="327.0" y="710.0" type="line"/>
      <point x="333.0" y="872.0" type="line"/>
      <point x="315.0" y="872.0" type="line"/>
      <point x="33.0" y="795.0" type="line"/>
      <point x="33.0" y="764.0" type="line"/>
      <point x="94.0" y="745.0"/>
      <point x="159.0" y="710.0"/>
    </contour>
  </outline>
</glyph>
<glyph name="k" format="2">
  <advance width="1032"/>
  <unicode hex="006B"/>
  <anchor x="535.0" y="0" name="bottom"/>
  <anchor x="535.0" y="1399.0" name="UCtop"/>
  <outline>
    <contour>
      <point x="530.0" y="469.0" type="line"/>
      <point x="833.0" y="772.0" type="line"/>
      <point x="961.0" y="809.0" type="line"/>
      <point x="961.0" y="852.0" type="line"/>
      <point x="594.0" y="852.0" type="line"/>
      <point x="594.0" y="809.0" type="line"/>
      <point x="724.0" y="772.0" type="line"/>
      <point x="469.0" y="509.0" type="line"/>
      <point x="299.0" y="509.0" type="line"/>
      <point x="299.0" y="429.0" type="line"/>
      <point x="431.0" y="429.0" type="line"/>
      <point x="740.0" y="79.0" type="line"/>
      <point x="623.0" y="37.0" type="line"/>
      <point x="623.0" y="0.0" type="line"/>
      <point x="1044.0" y="0.0" type="line"/>
      <point x="1044.0" y="37.0" type="line"/>
      <point x="920.0" y="84.0" type="line"/>
      <point x="545.0" y="510.0" type="line"/>
    </contour>
    <contour>
      <point x="326.0" y="85.0" type="line"/>
      <point x="326.0" y="1259.0" type="line"/>
      <point x="336.0" y="1419.0" type="line"/>
      <point x="316.0" y="1419.0" type="line"/>
      <point x="26.0" y="1335.0" type="line"/>
      <point x="26.0" y="1315.0" type="line"/>
      <point x="104.0" y="1282.0"/>
      <point x="154.0" y="1249.0"/>
      <point x="180.0" y="1218.0" type="curve"/>
      <point x="180.0" y="85.0" type="line"/>
      <point x="28.0" y="37.0" type="line"/>
      <point x="28.0" y="0.0" type="line"/>
      <point x="481.0" y="0.0" type="line"/>
      <point x="481.0" y="37.0" type="line"/>
    </contour>
  </outline>
</glyph>
<glyph name="l" format="2">
  <advance width="513"/>
  <unicode hex="006C"/>
  <anchor x="243.0" y="1399.0" name="UCtop"/>
  <anchor x="329.0" y="1399.0" name="right"/>
  <anchor x="256.0" y="0" name="bottom"/>
  <anchor x="514.0" y="546" name="mid"/>
  <outline>
    <contour>
      <point x="329.0" y="85.0" type="line"/>
      <point x="329.0" y="1259.0" type="line"/>
      <point x="339.0" y="1419.0" type="line"/>
      <point x="319.0" y="1419.0" type="line"/>
      <point x="29.0" y="1335.0" type="line"/>
      <point x="29.0" y="1315.0" type="line"/>
      <point x="107.0" y="1282.0"/>
      <point x="157.0" y="1249.0"/>
      <point x="183.0" y="1218.0" type="curve"/>
      <point x="183.0" y="85.0" type="line"/>
      <point x="31.0" y="37.0" type="line"/>
      <point x="31.0" y="0.0" type="line"/>
      <point x="484.0" y="0.0" type="line"/>
      <point x="484.0" y="37.0" type="line"/>
    </contour>
  </outline>
</glyph>
<glyph name="m" format="2">
  <advance width="1591"/>
  <unicode hex="006D"/>
  <guideline x="811.0" y="84" angle="5.710593137499642" identifier="gQpivOnnWb"/>
  <anchor x="811.0" y="852.0" name="top"/>
  <anchor x="811.0" y="0" name="bottom"/>
  <outline>
    <contour>
      <point x="348.0" y="689.0" type="line"/>
      <point x="318.0" y="872.0" type="line"/>
      <point x="297.0" y="872.0" type="line"/>
      <point x="54.0" y="770.0" type="line"/>
      <point x="54.0" y="745.0" type="line"/>
      <point x="145.0" y="715.0"/>
      <point x="180.0" y="696.0"/>
      <point x="202.0" y="674.0" type="curve"/>
      <point x="202.0" y="85.0" type="line"/>
      <point x="50.0" y="37.0" type="line"/>
      <point x="50.0" y="0.0" type="line"/>
      <point x="493.0" y="0.0" type="line"/>
      <point x="493.0" y="37.0" type="line"/>
      <point x="348.0" y="85.0" type="line"/>
    </contour>
    <contour>
      <point x="884.0" y="634.0" type="line" smooth="yes"/>
      <point x="884.0" y="751.0"/>
      <point x="822.0" y="872.0"/>
      <point x="661.0" y="872.0" type="curve" smooth="yes"/>
      <point x="528.0" y="872.0"/>
      <point x="430.0" y="821.0"/>
      <point x="298.0" y="679.0" type="curve"/>
      <point x="335.0" y="642.0" type="line"/>
      <point x="367.0" y="695.0"/>
      <point x="463.0" y="734.0"/>
      <point x="554.0" y="734.0" type="curve" smooth="yes"/>
      <point x="662.0" y="734.0"/>
      <point x="738.0" y="680.0"/>
      <point x="738.0" y="572.0" type="curve" smooth="yes"/>
      <point x="738.0" y="85.0" type="line"/>
      <point x="593.0" y="37.0" type="line"/>
      <point x="593.0" y="0.0" type="line"/>
      <point x="1028.0" y="0.0" type="line"/>
      <point x="1028.0" y="37.0" type="line"/>
      <point x="884.0" y="85.0" type="line"/>
    </contour>
    <contour>
      <point x="1420.0" y="575.0" type="line" smooth="yes"/>
      <point x="1420.0" y="764.0"/>
      <point x="1356.0" y="872.0"/>
      <point x="1197.0" y="872.0" type="curve" smooth="yes"/>
      <point x="1064.0" y="872.0"/>
      <point x="966.0" y="821.0"/>
      <point x="834.0" y="679.0" type="curve"/>
      <point x="871.0" y="642.0" type="line"/>
      <point x="903.0" y="695.0"/>
      <point x="999.0" y="734.0"/>
      <point x="1090.0" y="734.0" type="curve" smooth="yes"/>
      <point x="1197.0" y="734.0"/>
      <point x="1274.0" y="681.0"/>
      <point x="1274.0" y="572.0" type="curve" smooth="yes"/>
      <point x="1274.0" y="85.0" type="line"/>
      <point x="1129.0" y="37.0" type="line"/>
      <point x="1129.0" y="0.0" type="line"/>
      <point x="1574.0" y="0.0" type="line"/>
      <point x="1574.0" y="37.0" type="line"/>
      <point x="1420.0" y="85.0" type="line"/>
    </contour>
  </outline>
</glyph>
<glyph name="v" format="2">
  <advance width="995"/>
  <unicode hex="0076"/>
  <guideline x="276.0" y="767" angle="182.65594780019342" identifier="mjjWmVUIIO"/>
  <anchor x="508.0" y="852.0" name="top"/>
  <anchor x="502.0" y="0" name="bottom"/>
  <outline>
    <contour>
      <point x="858.0" y="772.0" type="line"/>
      <point x="965.0" y="809.0" type="line"/>
      <point x="965.0" y="852.0" type="line"/>
      <point x="646.0" y="852.0" type="line"/>
      <point x="646.0" y="809.0" type="line"/>
      <point x="776.0" y="772.0" type="line"/>
      <point x="544.0" y="170.0" type="line"/>
      <point x="559.0" y="170.0" type="line"/>
      <point x="276.0" y="767.0" type="line"/>
      <point x="406.0" y="809.0" type="line"/>
      <point x="406.0" y="852.0" type="line"/>
      <point x="-5.0" y="852.0" type="line"/>
      <point x="-5.0" y="809.0" type="line"/>
      <point x="119.0" y="762.0" type="line"/>
      <point x="489.0" y="-20.0" type="line"/>
      <point x="537.0" y="-20.0" type="line"/>
    </contour>
  </outline>
</glyph>
<glyph name="braceleft" format="2">
  <advance width="618"/>
  <unicode hex="007B"/>
  <guideline x="22.0" y="569" angle="180.0" identifier="31pk41viqJ"/>
  <outline>
    <contour>
      <point x="25.0" y="534.0" type="line"/>
      <point x="116.0" y="531.0" type="line" smooth="yes"/>
      <point x="209.0" y="528.0"/>
      <point x="256.0" y="489.0"/>
      <point x="256.0" y="405.0" type="curve" smooth="yes"/>
      <point x="256.0" y="241.0"/>
      <point x="206.0" y="142.0"/>
      <point x="206.0" y="24.0" type="curve" smooth="yes"/>
      <point x="206.0" y="-111.0"/>
      <point x="310.86537612718257" y="-245.48653761271825"/>
      <point x="496.0" y="-264.0" type="curve" smooth="yes"/>
      <point x="576.0" y="-272.0" type="line"/>
      <point x="583.0" y="-211.0" type="line"/>
      <point x="520.0" y="-203.0" type="line" smooth="yes"/>
      <point x="391.0" y="-187.0"/>
      <point x="353.0" y="-106.0"/>
      <point x="353.0" y="-8.0" type="curve" smooth="yes"/>
      <point x="353.0" y="100.0"/>
      <point x="387.0" y="216.0"/>
      <point x="387.0" y="354.0" type="curve" smooth="yes"/>
      <point x="387.0" y="442.0"/>
      <point x="328.0" y="542.0"/>
      <point x="193.0" y="579.0" type="curve"/>
      <point x="193.0" y="559.0" type="line"/>
      <point x="328.0" y="596.0"/>
      <point x="387.0" y="696.0"/>
      <point x="387.0" y="784.0" type="curve" smooth="yes"/>
      <point x="387.0" y="922.0"/>
      <point x="353.0" y="1038.0"/>
      <point x="353.0" y="1146.0" type="curve" smooth="yes"/>
      <point x="353.0" y="1244.0"/>
      <point x="391.0" y="1325.0"/>
      <point x="520.0" y="1341.0" type="curve" smooth="yes"/>
      <point x="583.0" y="1349.0" type="line"/>
      <point x="576.0" y="1410.0" type="line"/>
      <point x="496.0" y="1402.0" type="line" smooth="yes"/>
      <point x="310.8659861660384" y="1383.486598616604"/>
      <point x="206.0" y="1249.0"/>
      <point x="206.0" y="1114.0" type="curve" smooth="yes"/>
      <point x="206.0" y="996.0"/>
      <point x="256.0" y="897.0"/>
      <point x="256.0" y="733.0" type="curve" smooth="yes"/>
      <point x="256.0" y="649.0"/>
      <point x="209.0" y="610.0"/>
      <point x="116.0" y="607.0" type="curve" smooth="yes"/>
      <point x="25.0" y="604.0" type="line"/>
    </contour>
  </outline>
</glyph>
<glyph name="bar" format="2">
  <advance width="484"/>
  <unicode hex="007C"/>
  <outline>
    <contour>
      <point x="188.0" y="-530.0" type="line"/>
      <point x="296.0" y="-530.0" type="line"/>
      <point x="296.0" y="1470.0" type="line"/>
      <point x="188.0" y="1470.0" type="line"/>
    </contour>
  </outline>
</glyph>
<glyph name="currency" format="2">
  <advance width="878"/>
  <unicode hex="00A4"/>
  <outline>
    <contour>
      <point x="186.0" y="748.0" type="line"/>
      <point x="127.0" y="689.0" type="line"/>
      <point x="225.0" y="591.0" type="line"/>
      <point x="284.0" y="650.0" type="line"/>
    </contour>
    <contour>
      <point x="127.0" y="183.0" type="line"/>
      <point x="186.0" y="124.0" type="line"/>
      <point x="281.0" y="219.0" type="line"/>
      <point x="222.0" y="278.0" type="line"/>
    </contour>
    <contour>
      <point x="439.0" y="703.0" type="curve" smooth="yes"/>
      <point x="283.0" y="703.0"/>
      <point x="171.0" y="592.0"/>
      <point x="171.0" y="436.0" type="curve" smooth="yes"/>
      <point x="171.0" y="280.0"/>
      <point x="283.0" y="169.0"/>
      <point x="439.0" y="169.0" type="curve" smooth="yes"/>
      <point x="595.0" y="169.0"/>
      <point x="707.0" y="280.0"/>
      <point x="707.0" y="436.0" type="curve" smooth="yes"/>
      <point x="707.0" y="592.0"/>
      <point x="595.0" y="703.0"/>
    </contour>
    <contour>
      <point x="439.0" y="247.0" type="curve" smooth="yes"/>
      <point x="331.0" y="247.0"/>
      <point x="254.0" y="323.0"/>
      <point x="254.0" y="436.0" type="curve" smooth="yes"/>
      <point x="254.0" y="549.0"/>
      <point x="331.0" y="625.0"/>
      <point x="439.0" y="625.0" type="curve" smooth="yes"/>
      <point x="547.0" y="625.0"/>
      <point x="624.0" y="549.0"/>
      <point x="624.0" y="436.0" type="curve" smooth="yes"/>
      <point x="624.0" y="323.0"/>
      <point x="547.0" y="247.0"/>
    </contour>
    <contour>
      <point x="751.0" y="689.0" type="line"/>
      <point x="692.0" y="748.0" type="line"/>
      <point x="594.0" y="650.0" type="line"/>
      <point x="653.0" y="591.0" type="line"/>
    </contour>
    <contour>
      <point x="751.0" y="183.0" type="line"/>
      <point x="656.0" y="278.0" type="line"/>
      <point x="597.0" y="219.0" type="line"/>
      <point x="692.0" y="124.0" type="line"/>
    </contour>
  </outline>
</glyph>
<glyph name="copyright" format="2">
  <advance width="1620"/>
  <unicode hex="00A9"/>
  <outline>
    <contour>
      <point x="810.0" y="1360.0" type="curve" smooth="yes"/>
      <point x="404.0" y="1360.0"/>
      <point x="113.0" y="1074.0"/>
      <point x="113.0" y="670.0" type="curve" smooth="yes"/>
      <point x="113.0" y="266.0"/>
      <point x="404.0" y="-20.0"/>
      <point x="810.0" y="-20.0" type="curve" smooth="yes"/>
      <point x="1216.0" y="-20.0"/>
      <point x="1507.0" y="266.0"/>
      <point x="1507.0" y="670.0" type="curve" smooth="yes"/>
      <point x="1507.0" y="1074.0"/>
      <point x="1216.0" y="1360.0"/>
    </contour>
    <contour>
      <point x="810.0" y="1273.0" type="curve" smooth="yes"/>
      <point x="1155.0" y="1273.0"/>
      <point x="1406.0" y="1024.0"/>
      <point x="1406.0" y="670.0" type="curve" smooth="yes"/>
      <point x="1406.0" y="316.0"/>
      <point x="1155.0" y="67.0"/>
      <point x="810.0" y="67.0" type="curve" smooth="yes"/>
      <point x="465.0" y="67.0"/>
      <point x="214.0" y="316.0"/>
      <point x="214.0" y="670.0" type="curve" smooth="yes"/>
      <point x="214.0" y="1024.0"/>
      <point x="465.0" y="1273.0"/>
    </contour>
    <contour>
      <point x="874.0" y="370.0" type="curve"/>
      <point x="703.0" y="370.0"/>
      <point x="575.0" y="497.0"/>
      <point x="575.0" y="702.0" type="curve" smooth="yes"/>
      <point x="575.0" y="869.0"/>
      <point x="671.0" y="981.0"/>
      <point x="865.0" y="981.0" type="curve" smooth="yes"/>
      <point x="917.0" y="981.0"/>
      <point x="958.0" y="972.0"/>
      <point x="1018.0" y="944.0" type="curve"/>
      <point x="957.0" y="994.0" type="line"/>
      <point x="1071.0" y="797.0" type="line"/>
      <point x="1109.0" y="806.0" type="line"/>
      <point x="1069.0" y="1093.0" type="line"/>
      <point x="1059.0" y="1093.0" type="line"/>
      <point x="973.0" y="1041.0" type="line"/>
      <point x="1019.0" y="1046.0" type="line"/>
      <point x="955.0" y="1060.0"/>
      <point x="916.0" y="1065.0"/>
      <point x="870.0" y="1065.0" type="curve" smooth="yes"/>
      <point x="591.0" y="1065.0"/>
      <point x="429.0" y="904.0"/>
      <point x="429.0" y="669.0" type="curve" smooth="yes"/>
      <point x="429.0" y="436.0"/>
      <point x="598.0" y="286.0"/>
      <point x="850.0" y="286.0" type="curve" smooth="yes"/>
      <point x="926.0" y="286.0"/>
      <point x="1012.0" y="298.0"/>
      <point x="1080.0" y="322.0" type="curve"/>
      <point x="1113.0" y="544.0" type="line"/>
      <point x="1073.0" y="544.0" type="line"/>
      <point x="967.0" y="343.0" type="line"/>
      <point x="1036.0" y="400.0" type="line"/>
      <point x="976.0" y="374.0"/>
      <point x="929.0" y="370.0"/>
    </contour>
  </outline>
</glyph>
<glyph name="ordfeminine" format="2">
  <advance width="877"/>
  <unicode hex="00AA"/>
  <outline>
    <contour>
      <point x="116.0" y="464.0" type="line"/>
      <point x="768.0" y="464.0" type="line"/>
      <point x="768.0" y="553.0" type="line"/>
      <point x="116.0" y="553.0" type="line"/>
    </contour>
    <contour>
      <point x="590.0" y="1048.0" type="curve"/>
      <point x="576.0" y="1115.0" type="line"/>
      <point x="230.0" y="1033.0"/>
      <point x="151.0" y="962.0"/>
      <point x="151.0" y="848.0" type="curve" smooth="yes"/>
      <point x="151.0" y="739.0"/>
      <point x="231.0" y="679.0"/>
      <point x="342.0" y="679.0" type="curve" smooth="yes"/>
      <point x="430.0" y="679.0"/>
      <point x="503.0" y="733.0"/>
      <point x="531.0" y="819.0" type="curve"/>
      <point x="528.0" y="819.0" type="line"/>
      <point x="528.0" y="733.0"/>
      <point x="580.0" y="681.0"/>
      <point x="656.0" y="681.0" type="curve" smooth="yes"/>
      <point x="696.0" y="681.0"/>
      <point x="721.0" y="692.0"/>
      <point x="773.0" y="733.0" type="curve"/>
      <point x="773.0" y="778.0" type="line"/>
      <point x="751.0" y="767.0"/>
      <point x="725.0" y="762.0"/>
      <point x="703.0" y="762.0" type="curve" smooth="yes"/>
      <point x="668.0" y="762.0"/>
      <point x="651.0" y="782.0"/>
      <point x="651.0" y="830.0" type="curve" smooth="yes"/>
      <point x="651.0" y="1182.0" type="line" smooth="yes"/>
      <point x="651.0" y="1297.0"/>
      <point x="591.0" y="1360.0"/>
      <point x="448.0" y="1360.0" type="curve" smooth="yes"/>
      <point x="303.0" y="1360.0"/>
      <point x="150.0" y="1267.0"/>
      <point x="150.0" y="1197.0" type="curve" smooth="yes"/>
      <point x="150.0" y="1170.0"/>
      <point x="172.0" y="1152.0"/>
      <point x="207.0" y="1152.0" type="curve" smooth="yes"/>
      <point x="235.0" y="1152.0"/>
      <point x="262.0" y="1161.0"/>
      <point x="282.0" y="1181.0" type="curve" smooth="yes"/>
      <point x="302.0" y="1201.0"/>
      <point x="308.0" y="1232.0"/>
      <point x="316.0" y="1301.0" type="curve"/>
      <point x="272.0" y="1258.0" type="line"/>
      <point x="314.0" y="1277.0"/>
      <point x="362.0" y="1287.0"/>
      <point x="396.0" y="1287.0" type="curve" smooth="yes"/>
      <point x="482.0" y="1287.0"/>
      <point x="519.0" y="1240.0"/>
      <point x="519.0" y="1166.0" type="curve" smooth="yes"/>
      <point x="519.0" y="895.0" type="line" smooth="yes"/>
      <point x="519.0" y="825.0"/>
      <point x="469.0" y="763.0"/>
      <point x="398.0" y="763.0" type="curve" smooth="yes"/>
      <point x="339.0" y="763.0"/>
      <point x="291.0" y="799.0"/>
      <point x="291.0" y="866.0" type="curve" smooth="yes"/>
      <point x="291.0" y="942.0"/>
      <point x="342.0" y="995.0"/>
    </contour>
  </outline>
</glyph>
<glyph name="logicalnot" format="2">
  <advance width="1000"/>
  <unicode hex="00AC"/>
  <outline>
    <contour>
      <point x="140.0" y="648.0" type="line"/>
      <point x="140.0" y="564.0" type="line"/>
      <point x="854.0" y="564.0" type="line"/>
      <point x="854.0" y="648.0" type="line"/>
    </contour>
    <contour>
      <point x="854.0" y="603.0" type="line"/>
      <point x="770.0" y="603.0" type="line"/>
      <point x="770.0" y="224.0" type="line"/>
      <point x="854.0" y="224.0" type="line"/>
    </contour>
  </outline>
</glyph>
<glyph name="plusminus" format="2">
  <advance width="1000"/>
  <unicode hex="00B1"/>
  <outline>
    <contour>
      <point x="458.0" y="852.0" type="line"/>
      <point x="458.0" y="138.0" type="line"/>
      <point x="542.0" y="138.0" type="line"/>
      <point x="542.0" y="852.0" type="line"/>
    </contour>
    <contour>
      <point x="143.0" y="537.0" type="line"/>
      <point x="143.0" y="453.0" type="line"/>
      <point x="857.0" y="453.0" type="line"/>
      <point x="857.0" y="537.0" type="line"/>
    </contour>
    <contour>
      <point x="143.0" y="84.0" type="line"/>
      <point x="143.0" y="0.0" type="line"/>
      <point x="857.0" y="0.0" type="line"/>
      <point x="857.0" y="84.0" type="line"/>
    </contour>
  </outline>
</glyph>
<glyph name="uni00B2" format="2">
  <advance width="676"/>
  <unicode hex="00B2"/>
  <outline>
    <contour>
      <point x="464.0" y="674.0" type="line"/>
      <point x="549.0" y="727.0" type="line"/>
      <point x="187.0" y="727.0" type="line"/>
      <point x="191.0" y="677.0" type="line"/>
      <point x="340.0" y="822.0" type="line" smooth="yes"/>
      <point x="507.0" y="985.0"/>
      <point x="565.0" y="1057.0"/>
      <point x="565.0" y="1155.0" type="curve" smooth="yes"/>
      <point x="565.0" y="1278.0"/>
      <point x="471.0" y="1354.0"/>
      <point x="340.0" y="1354.0" type="curve" smooth="yes"/>
      <point x="201.0" y="1354.0"/>
      <point x="100.0" y="1269.0"/>
      <point x="65.0" y="1100.0" type="curve"/>
      <point x="105.0" y="1091.0" type="line"/>
      <point x="136.0" y="1196.0"/>
      <point x="203.0" y="1234.0"/>
      <point x="286.0" y="1234.0" type="curve" smooth="yes"/>
      <point x="369.0" y="1234.0"/>
      <point x="422.0" y="1183.0"/>
      <point x="422.0" y="1116.0" type="curve" smooth="yes"/>
      <point x="422.0" y="1032.0"/>
      <point x="383.0" y="961.0"/>
      <point x="279.0" y="842.0" type="curve" smooth="yes"/>
      <point x="75.0" y="609.0" type="line"/>
      <point x="75.0" y="592.0" type="line"/>
      <point x="486.0" y="592.0" type="line"/>
      <point x="556.0" y="570.0" type="line"/>
      <point x="570.0" y="570.0" type="line"/>
      <point x="613.0" y="842.0" type="line"/>
      <point x="587.0" y="842.0" type="line"/>
    </contour>
  </outline>
</glyph>
<glyph name="uni00B5" format="2">
  <advance width="1081"/>
  <unicode hex="00B5"/>
  <outline>
    <contour>
      <point x="181.0" y="852.0" type="line"/>
      <point x="181.0" y="-520.0" type="line"/>
      <point x="191.0" y="-520.0" type="line"/>
      <point x="348.0" y="-503.0" type="line"/>
      <point x="256.0" y="163.0" type="line"/>
      <point x="243.0" y="163.0" type="line"/>
      <point x="259.0" y="23.0"/>
      <point x="331.0" y="-20.0"/>
      <point x="438.0" y="-20.0" type="curve" smooth="yes"/>
      <point x="547.0" y="-20.0"/>
      <point x="636.0" y="30.0"/>
      <point x="770.0" y="173.0" type="curve"/>
      <point x="732.0" y="211.0" type="line"/>
      <point x="698.0" y="158.0"/>
      <point x="602.0" y="119.0"/>
      <point x="512.0" y="119.0" type="curve" smooth="yes"/>
      <point x="369.0" y="119.0"/>
      <point x="327.0" y="160.0"/>
      <point x="327.0" y="282.0" type="curve" smooth="yes"/>
      <point x="327.0" y="852.0" type="line"/>
    </contour>
    <contour>
      <point x="866.0" y="175.0" type="curve" smooth="yes"/>
      <point x="866.0" y="852.0" type="line"/>
      <point x="719.0" y="852.0" type="line"/>
      <point x="719.0" y="166.0" type="line" smooth="yes"/>
      <point x="719.0" y="53.0"/>
      <point x="776.0" y="-18.0"/>
      <point x="875.0" y="-18.0" type="curve" smooth="yes"/>
      <point x="927.0" y="-18.0"/>
      <point x="991.0" y="9.0"/>
      <point x="1046.0" y="69.0" type="curve"/>
      <point x="1046.0" y="115.0" type="line"/>
      <point x="1013.0" y="101.0"/>
      <point x="976.0" y="89.0"/>
      <point x="945.0" y="89.0" type="curve" smooth="yes"/>
      <point x="893.0" y="89.0"/>
      <point x="866.0" y="118.0"/>
    </contour>
  </outline>
</glyph>
<glyph name="questiondown" format="2">
  <advance width="805"/>
  <unicode hex="00BF"/>
  <outline>
    <contour>
      <point x="545.0" y="-512.0" type="curve" smooth="yes"/>
      <point x="689.0" y="-512.0"/>
      <point x="769.0" y="-469.0"/>
      <point x="769.0" y="-400.0" type="curve" smooth="yes"/>
      <point x="769.0" y="-351.0"/>
      <point x="728.0" y="-311.0"/>
      <point x="672.0" y="-311.0" type="curve" smooth="yes"/>
      <point x="575.0" y="-311.0"/>
      <point x="567.0" y="-408.0"/>
      <point x="438.0" y="-408.0" type="curve" smooth="yes"/>
      <point x="290.0" y="-408.0"/>
      <point x="189.0" y="-310.0"/>
      <point x="189.0" y="-140.0" type="curve" smooth="yes"/>
      <point x="189.0" y="22.0"/>
      <point x="316.0" y="115.0"/>
      <point x="588.0" y="94.0" type="curve"/>
      <point x="515.0" y="452.0" type="line"/>
      <point x="472.0" y="452.0" type="line"/>
      <point x="472.0" y="109.0" type="line"/>
      <point x="535.0" y="222.0" type="line"/>
      <point x="192.0" y="234.0"/>
      <point x="90.0" y="98.0"/>
      <point x="90.0" y="-91.0" type="curve" smooth="yes"/>
      <point x="90.0" y="-364.0"/>
      <point x="304.0" y="-512.0"/>
    </contour>
    <contour>
      <point x="484.0" y="624.0" type="curve" smooth="yes"/>
      <point x="554.0" y="624.0"/>
      <point x="605.0" y="677.0"/>
      <point x="605.0" y="743.0" type="curve" smooth="yes"/>
      <point x="605.0" y="809.0"/>
      <point x="554.0" y="862.0"/>
      <point x="484.0" y="862.0" type="curve" smooth="yes"/>
      <point x="414.0" y="862.0"/>
      <point x="363.0" y="809.0"/>
      <point x="363.0" y="743.0" type="curve" smooth="yes"/>
      <point x="363.0" y="677.0"/>
      <point x="414.0" y="624.0"/>
    </contour>
  </outline>
</glyph>
<glyph name="AE" format="2">
  <advance width="1916"/>
  <unicode hex="00C6"/>
  <anchor x="1002.0" y="1340.0" name="UCtop"/>
  <anchor x="1002.0" y="0" name="bottom"/>
  <outline>
    <contour>
      <point x="446.0" y="501.0" type="line"/>
      <point x="1007.0" y="501.0" type="line"/>
      <point x="1007.0" y="592.0" type="line"/>
      <point x="446.0" y="592.0" type="line"/>
    </contour>
    <contour>
      <point x="867.0" y="1340.0" type="line"/>
      <point x="129.0" y="91.0" type="line"/>
      <point x="-24.0" y="39.0" type="line"/>
      <point x="-24.0" y="0.0" type="line"/>
      <point x="403.0" y="0.0" type="line"/>
      <point x="403.0" y="39.0" type="line"/>
      <point x="240.0" y="91.0" type="line"/>
      <point x="953.0" y="1300.0" type="line"/>
      <point x="953.0" y="1340.0" type="line"/>
    </contour>
    <contour>
      <point x="673.0" y="1301.0" type="line"/>
      <point x="845.0" y="1244.0" type="line"/>
      <point x="885.0" y="1340.0" type="line"/>
      <point x="673.0" y="1340.0" type="line"/>
    </contour>
    <contour>
      <point x="1563.0" y="965.0" type="line"/>
      <point x="1489.0" y="965.0" type="line"/>
      <point x="1467.0" y="750.0" type="line"/>
      <point x="982.0" y="750.0" type="line"/>
      <point x="982.0" y="656.0" type="line"/>
      <point x="1467.0" y="656.0" type="line"/>
      <point x="1489.0" y="441.0" type="line"/>
      <point x="1563.0" y="441.0" type="line"/>
      <point x="1563.0" y="703.0" type="line"/>
    </contour>
    <contour>
      <point x="1816.0" y="962.0" type="line"/>
      <point x="1751.0" y="1389.0" type="line"/>
      <point x="1735.0" y="1389.0" type="line"/>
      <point x="1623.0" y="1340.0" type="line"/>
      <point x="982.0" y="1340.0" type="line"/>
      <point x="982.0" y="1246.0" type="line"/>
      <point x="1659.0" y="1246.0" type="line"/>
      <point x="1604.0" y="1267.0" type="line"/>
      <point x="1769.0" y="953.0" type="line"/>
    </contour>
    <contour>
      <point x="1622.0" y="68.0" type="line"/>
      <point x="1667.0" y="94.0" type="line"/>
      <point x="982.0" y="94.0" type="line"/>
      <point x="982.0" y="0.0" type="line"/>
      <point x="1641.0" y="0.0" type="line"/>
      <point x="1756.0" y="-59.0" type="line"/>
      <point x="1772.0" y="-59.0" type="line"/>
      <point x="1844.0" y="370.0" type="line"/>
      <point x="1803.0" y="381.0" type="line"/>
    </contour>
    <contour>
      <point x="764.0" y="0.0" type="line"/>
      <point x="1082.0" y="0.0" type="line"/>
      <point x="1082.0" y="1340.0" type="line"/>
      <point x="922.0" y="1340.0" type="line"/>
      <point x="922.0" y="91.0" type="line"/>
      <point x="764.0" y="39.0" type="line"/>
    </contour>
  </outline>
</glyph>
<glyph name="ccedilla" format="2">
  <advance width="829"/>
  <unicode hex="00E7"/>
  <outline>
    <contour>
      <point x="546.0" y="872.0" type="curve" smooth="yes"/>
      <point x="242.0" y="872.0"/>
      <point x="75.0" y="655.0"/>
      <point x="75.0" y="402.0" type="curve" smooth="yes"/>
      <point x="75.0" y="161.0"/>
      <point x="231.0" y="-20.0"/>
      <point x="456.0" y="-20.0" type="curve" smooth="yes"/>
      <point x="586.0" y="-20.0"/>
      <point x="685.0" y="38.0"/>
      <point x="781.0" y="162.0" type="curve"/>
      <point x="757.0" y="189.0" type="line"/>
      <point x="691.0" y="131.0"/>
      <point x="621.0" y="100.0"/>
      <point x="548.0" y="100.0" type="curve" smooth="yes"/>
      <point x="349.0" y="100.0"/>
      <point x="223.0" y="248.0"/>
      <point x="223.0" y="485.0" type="curve" smooth="yes"/>
      <point x="223.0" y="689.0"/>
      <point x="338.0" y="786.0"/>
      <point x="448.0" y="786.0" type="curve" smooth="yes"/>
      <point x="546.0" y="786.0"/>
      <point x="578.0" y="662.0"/>
      <point x="676.0" y="662.0" type="curve" smooth="yes"/>
      <point x="730.0" y="662.0"/>
      <point x="768.0" y="698.0"/>
      <point x="768.0" y="755.0" type="curve" smooth="yes"/>
      <point x="768.0" y="807.0"/>
      <point x="710.0" y="872.0"/>
    </contour>
    <contour>
      <point x="357.0" y="-530.0" type="curve" smooth="yes"/>
      <point x="484.0" y="-530.0"/>
      <point x="609.0" y="-441.0"/>
      <point x="609.0" y="-311.0" type="curve" smooth="yes"/>
      <point x="609.0" y="-226.0"/>
      <point x="550.0" y="-157.0"/>
      <point x="362.0" y="-126.0" type="curve"/>
      <point x="365.0" y="-221.0" type="line"/>
      <point x="562.0" y="50.0" type="line"/>
      <point x="485.0" y="50.0" type="line"/>
      <point x="282.0" y="-211.0" type="line"/>
      <point x="282.0" y="-229.0" type="line"/>
      <point x="455.0" y="-250.0"/>
      <point x="516.0" y="-286.0"/>
      <point x="516.0" y="-360.0" type="curve" smooth="yes"/>
      <point x="516.0" y="-420.0"/>
      <point x="472.0" y="-459.0"/>
      <point x="410.0" y="-459.0" type="curve" smooth="yes"/>
      <point x="342.0" y="-459.0"/>
      <point x="332.0" y="-396.0"/>
      <point x="274.0" y="-396.0" type="curve" smooth="yes"/>
      <point x="243.0" y="-396.0"/>
      <point x="221.0" y="-415.0"/>
      <point x="221.0" y="-446.0" type="curve" smooth="yes"/>
      <point x="221.0" y="-489.0"/>
      <point x="260.0" y="-530.0"/>
    </contour>
  </outline>
</glyph>
<glyph name="eth" format="2">
  <advance width="1031"/>
  <unicode hex="00F0"/>
  <outline>
    <contour>
      <point x="502.0" y="-20.0" type="curve" smooth="yes"/>
      <point x="754.0" y="-20.0"/>
      <point x="934.0" y="166.0"/>
      <point x="934.0" y="524.0" type="curve" smooth="yes"/>
      <point x="934.0" y="1017.0"/>
      <point x="770.0" y="1318.0"/>
      <point x="177.0" y="1417.0" type="curve"/>
      <point x="161.0" y="1353.0" type="line"/>
      <point x="597.0" y="1248.0"/>
      <point x="757.0" y="1089.0"/>
      <point x="774.0" y="653.0" type="curve"/>
      <point x="795.0" y="689.0" type="line"/>
      <point x="738.0" y="805.0"/>
      <point x="621.0" y="872.0"/>
      <point x="494.0" y="872.0" type="curve" smooth="yes"/>
      <point x="259.0" y="872.0"/>
      <point x="75.0" y="680.0"/>
      <point x="75.0" y="416.0" type="curve" smooth="yes"/>
      <point x="75.0" y="159.0"/>
      <point x="249.0" y="-20.0"/>
    </contour>
    <contour>
      <point x="508.0" y="57.0" type="curve" smooth="yes"/>
      <point x="347.0" y="57.0"/>
      <point x="240.0" y="195.0"/>
      <point x="240.0" y="450.0" type="curve" smooth="yes"/>
      <point x="240.0" y="688.0"/>
      <point x="351.0" y="795.0"/>
      <point x="501.0" y="795.0" type="curve" smooth="yes"/>
      <point x="662.0" y="795.0"/>
      <point x="769.0" y="657.0"/>
      <point x="769.0" y="402.0" type="curve" smooth="yes"/>
      <point x="769.0" y="164.0"/>
      <point x="658.0" y="57.0"/>
    </contour>
    <contour>
      <point x="381.0" y="974.0" type="line"/>
      <point x="889.0" y="1352.0" type="line"/>
      <point x="840.0" y="1419.0" type="line"/>
      <point x="332.0" y="1041.0" type="line"/>
    </contour>
  </outline>
</glyph>
<glyph name="divide" format="2">
  <advance width="1000"/>
  <unicode hex="00F7"/>
  <outline>
    <contour>
      <point x="500.0" y="234.0" type="curve" smooth="yes"/>
      <point x="436.0" y="234.0"/>
      <point x="390.0" y="185.0"/>
      <point x="390.0" y="125.0" type="curve" smooth="yes"/>
      <point x="390.0" y="65.0"/>
      <point x="436.0" y="16.0"/>
      <point x="500.0" y="16.0" type="curve" smooth="yes"/>
      <point x="564.0" y="16.0"/>
      <point x="610.0" y="65.0"/>
      <point x="610.0" y="125.0" type="curve" smooth="yes"/>
      <point x="610.0" y="185.0"/>
      <point x="564.0" y="234.0"/>
    </contour>
    <contour>
      <point x="500.0" y="856.0" type="curve" smooth="yes"/>
      <point x="436.0" y="856.0"/>
      <point x="390.0" y="807.0"/>
      <point x="390.0" y="747.0" type="curve" smooth="yes"/>
      <point x="390.0" y="687.0"/>
      <point x="436.0" y="638.0"/>
      <point x="500.0" y="638.0" type="curve" smooth="yes"/>
      <point x="564.0" y="638.0"/>
      <point x="610.0" y="687.0"/>
      <point x="610.0" y="747.0" type="curve" smooth="yes"/>
      <point x="610.0" y="807.0"/>
      <point x="564.0" y="856.0"/>
    </contour>
    <contour>
      <point x="143.0" y="478.0" type="line"/>
      <point x="143.0" y="394.0" type="line"/>
      <point x="857.0" y="394.0" type="line"/>
      <point x="857.0" y="478.0" type="line"/>
    </contour>
  </outline>
</glyph>
<glyph name="Hbar" format="2">
  <advance width="1561"/>
  <unicode hex="0126"/>
  <outline>
    <contour>
      <point x="404.0" y="91.0" type="line"/>
      <point x="404.0" y="1249.0" type="line"/>
      <point x="562.0" y="1301.0" type="line"/>
      <point x="562.0" y="1340.0" type="line"/>
      <point x="86.0" y="1340.0" type="line"/>
      <point x="86.0" y="1301.0" type="line"/>
      <point x="244.0" y="1249.0" type="line"/>
      <point x="244.0" y="91.0" type="line"/>
      <point x="86.0" y="39.0" type="line"/>
      <point x="86.0" y="0.0" type="line"/>
      <point x="562.0" y="0.0" type="line"/>
      <point x="562.0" y="39.0" type="line"/>
    </contour>
    <contour>
      <point x="1317.0" y="91.0" type="line"/>
      <point x="1317.0" y="1249.0" type="line"/>
      <point x="1475.0" y="1301.0" type="line"/>
      <point x="1475.0" y="1340.0" type="line"/>
      <point x="999.0" y="1340.0" type="line"/>
      <point x="999.0" y="1301.0" type="line"/>
      <point x="1157.0" y="1249.0" type="line"/>
      <point x="1157.0" y="91.0" type="line"/>
      <point x="999.0" y="39.0" type="line"/>
      <point x="999.0" y="0.0" type="line"/>
      <point x="1475.0" y="0.0" type="line"/>
      <point x="1475.0" y="39.0" type="line"/>
    </contour>
    <contour>
      <point x="86.0" y="954.0" type="line"/>
      <point x="1475.0" y="954.0" type="line"/>
      <point x="1475.0" y="1048.0" type="line"/>
      <point x="86.0" y="1048.0" type="line"/>
    </contour>
    <contour>
      <point x="304.0" y="636.0" type="line"/>
      <point x="1257.0" y="636.0" type="line"/>
      <point x="1257.0" y="730.0" type="line"/>
      <point x="304.0" y="730.0" type="line"/>
    </contour>
  </outline>
</glyph>
<glyph name="Iogonek" format="2">
  <advance width="646"/>
  <unicode hex="012E"/>
  <outline>
    <contour>
      <point x="561.0" y="39.0" type="line"/>
      <point x="403.0" y="91.0" type="line"/>
      <point x="403.0" y="1249.0" type="line"/>
      <point x="561.0" y="1301.0" type="line"/>
      <point x="561.0" y="1340.0" type="line"/>
      <point x="85.0" y="1340.0" type="line"/>
      <point x="85.0" y="1301.0" type="line"/>
      <point x="243.0" y="1249.0" type="line"/>
      <point x="243.0" y="91.0" type="line"/>
      <point x="85.0" y="39.0" type="line"/>
      <point x="85.0" y="0.0" type="line"/>
      <point x="561.0" y="0.0" type="line"/>
    </contour>
    <contour>
      <point x="295.0" y="-133.0" type="curve" smooth="yes"/>
      <point x="384.0" y="46.0" type="line"/>
      <point x="331.0" y="46.0" type="line"/>
      <point x="216.0" y="-124.0" type="line" smooth="yes"/>
      <point x="141.0" y="-234.0"/>
      <point x="124.0" y="-297.0"/>
      <point x="124.0" y="-361.0" type="curve" smooth="yes"/>
      <point x="124.0" y="-467.0"/>
      <point x="197.0" y="-530.0"/>
      <point x="294.0" y="-530.0" type="curve" smooth="yes"/>
      <point x="383.0" y="-530.0"/>
      <point x="456.0" y="-484.0"/>
      <point x="532.0" y="-370.0" type="curve"/>
      <point x="503.0" y="-342.0" type="line"/>
      <point x="435.0" y="-413.0"/>
      <point x="392.0" y="-430.0"/>
      <point x="349.0" y="-430.0" type="curve" smooth="yes"/>
      <point x="286.0" y="-430.0"/>
      <point x="241.0" y="-392.0"/>
      <point x="241.0" y="-324.0" type="curve" smooth="yes"/>
      <point x="241.0" y="-274.0"/>
      <point x="254.0" y="-216.0"/>
    </contour>
  </outline>
</glyph>
<glyph name="Lslash" format="2">
  <advance width="1211"/>
  <unicode hex="0141"/>
  <outline>
    <contour>
      <point x="311.0" y="568.0" type="line"/>
      <point x="391.0" y="596.0" type="line"/>
      <point x="745.0" y="807.0" type="line"/>
      <point x="745.0" y="916.0" type="line"/>
      <point x="391.0" y="705.0" type="line"/>
      <point x="311.0" y="677.0" type="line"/>
      <point x="74.0" y="535.0" type="line"/>
      <point x="74.0" y="426.0" type="line"/>
    </contour>
    <contour>
      <point x="1094.0" y="-59.0" type="line"/>
      <point x="1175.0" y="392.0" type="line"/>
      <point x="1133.0" y="402.0" type="line"/>
      <point x="936.0" y="65.0" type="line"/>
      <point x="1078.0" y="94.0" type="line"/>
      <point x="346.0" y="94.0" type="line"/>
      <point x="346.0" y="0.0" type="line"/>
      <point x="954.0" y="0.0" type="line"/>
      <point x="1073.0" y="-59.0" type="line"/>
    </contour>
    <contour>
      <point x="446.0" y="1249.0" type="line"/>
      <point x="604.0" y="1301.0" type="line"/>
      <point x="604.0" y="1340.0" type="line"/>
      <point x="128.0" y="1340.0" type="line"/>
      <point x="128.0" y="1301.0" type="line"/>
      <point x="286.0" y="1249.0" type="line"/>
      <point x="286.0" y="91.0" type="line"/>
      <point x="128.0" y="39.0" type="line"/>
      <point x="128.0" y="0.0" type="line"/>
      <point x="446.0" y="0.0" type="line"/>
    </contour>
  </outline>
</glyph>
<glyph name="Eng" format="2">
  <advance width="1500"/>
  <unicode hex="014A"/>
  <guideline x="396.0" y="1340" angle="357.1951704523018" identifier="9r4qizv0Iy"/>
  <outline>
    <contour>
      <point x="1234.0" y="179.0" type="line"/>
      <point x="402.0" y="1340.0" type="line"/>
      <point x="82.0" y="1340.0" type="line"/>
      <point x="82.0" y="1301.0" type="line"/>
      <point x="245.0" y="1233.0" type="line"/>
      <point x="245.0" y="91.0" type="line"/>
      <point x="87.0" y="39.0" type="line"/>
      <point x="87.0" y="0.0" type="line"/>
      <point x="512.0" y="0.0" type="line"/>
      <point x="512.0" y="39.0" type="line"/>
      <point x="341.0" y="91.0" type="line"/>
      <point x="341.0" y="1230.0" type="line"/>
      <point x="308.0" y="1194.0" type="line"/>
      <point x="1228.0" y="-88.0" type="line"/>
    </contour>
    <contour>
      <point x="1271.0" y="-71.0" type="curve" smooth="yes"/>
      <point x="1271.0" y="1249.0" type="line"/>
      <point x="1429.0" y="1301.0" type="line"/>
      <point x="1429.0" y="1340.0" type="line"/>
      <point x="1004.0" y="1340.0" type="line"/>
      <point x="1004.0" y="1301.0" type="line"/>
      <point x="1175.0" y="1249.0" type="line"/>
      <point x="1175.0" y="-79.0" type="line" smooth="yes"/>
      <point x="1175.0" y="-347.0"/>
      <point x="1087.0" y="-419.0"/>
      <point x="984.0" y="-419.0" type="curve" smooth="yes"/>
      <point x="900.0" y="-419.0"/>
      <point x="846.0" y="-330.0"/>
      <point x="794.0" y="-330.0" type="curve" smooth="yes"/>
      <point x="743.0" y="-330.0"/>
      <point x="718.0" y="-372.0"/>
      <point x="718.0" y="-417.0" type="curve" smooth="yes"/>
      <point x="718.0" y="-487.0"/>
      <point x="786.0" y="-530.0"/>
      <point x="908.0" y="-530.0" type="curve" smooth="yes"/>
      <point x="1129.0" y="-530.0"/>
      <point x="1271.0" y="-388.0"/>
    </contour>
  </outline>
</glyph>
<glyph name="uni0162" format="2">
  <advance width="1298"/>
  <unicode hex="0162"/>
  <outline>
    <contour>
      <point x="569.0" y="1279.0" type="line"/>
      <point x="569.0" y="91.0" type="line"/>
      <point x="411.0" y="39.0" type="line"/>
      <point x="411.0" y="0.0" type="line"/>
      <point x="887.0" y="0.0" type="line"/>
      <point x="887.0" y="39.0" type="line"/>
      <point x="729.0" y="91.0" type="line"/>
      <point x="729.0" y="1279.0" type="line"/>
    </contour>
    <contour>
      <point x="1166.0" y="1246.0" type="line"/>
      <point x="1074.0" y="1265.0" type="line"/>
      <point x="1209.0" y="979.0" type="line"/>
      <point x="1255.0" y="988.0" type="line"/>
      <point x="1215.0" y="1408.0" type="line"/>
      <point x="1197.0" y="1408.0" type="line"/>
      <point x="1056.0" y="1324.0" type="line"/>
      <point x="1143.0" y="1340.0" type="line"/>
      <point x="155.0" y="1340.0" type="line"/>
      <point x="242.0" y="1324.0" type="line"/>
      <point x="101.0" y="1408.0" type="line"/>
      <point x="83.0" y="1408.0" type="line"/>
      <point x="43.0" y="988.0" type="line"/>
      <point x="89.0" y="979.0" type="line"/>
      <point x="224.0" y="1265.0" type="line"/>
      <point x="132.0" y="1246.0" type="line"/>
    </contour>
    <contour>
      <point x="551.0" y="-530.0" type="curve" smooth="yes"/>
      <point x="678.0" y="-530.0"/>
      <point x="803.0" y="-441.0"/>
      <point x="803.0" y="-311.0" type="curve" smooth="yes"/>
      <point x="803.0" y="-226.0"/>
      <point x="744.0" y="-157.0"/>
      <point x="556.0" y="-126.0" type="curve"/>
      <point x="559.0" y="-221.0" type="line"/>
      <point x="756.0" y="50.0" type="line"/>
      <point x="679.0" y="50.0" type="line"/>
      <point x="476.0" y="-211.0" type="line"/>
      <point x="476.0" y="-229.0" type="line"/>
      <point x="649.0" y="-250.0"/>
      <point x="710.0" y="-286.0"/>
      <point x="710.0" y="-360.0" type="curve" smooth="yes"/>
      <point x="710.0" y="-420.0"/>
      <point x="666.0" y="-459.0"/>
      <point x="604.0" y="-459.0" type="curve" smooth="yes"/>
      <point x="536.0" y="-459.0"/>
      <point x="526.0" y="-396.0"/>
      <point x="468.0" y="-396.0" type="curve" smooth="yes"/>
      <point x="437.0" y="-396.0"/>
      <point x="415.0" y="-415.0"/>
      <point x="415.0" y="-446.0" type="curve" smooth="yes"/>
      <point x="415.0" y="-489.0"/>
      <point x="454.0" y="-530.0"/>
    </contour>
  </outline>
</glyph>
<glyph name="Uogonek" format="2">
  <advance width="1498"/>
  <unicode hex="0172"/>
  <outline>
    <contour>
      <point x="1188.0" y="489.0" type="line" smooth="yes"/>
      <point x="1188.0" y="242.0"/>
      <point x="1044.0" y="102.0"/>
      <point x="781.0" y="102.0" type="curve" smooth="yes"/>
      <point x="508.0" y="102.0"/>
      <point x="372.0" y="243.0"/>
      <point x="372.0" y="534.0" type="curve" smooth="yes"/>
      <point x="372.0" y="1249.0" type="line"/>
      <point x="530.0" y="1301.0" type="line"/>
      <point x="530.0" y="1340.0" type="line"/>
      <point x="54.0" y="1340.0" type="line"/>
      <point x="54.0" y="1301.0" type="line"/>
      <point x="212.0" y="1249.0" type="line"/>
      <point x="212.0" y="543.0" type="line" smooth="yes"/>
      <point x="212.0" y="173.0"/>
      <point x="407.0" y="-20.0"/>
      <point x="758.0" y="-20.0" type="curve" smooth="yes"/>
      <point x="1094.0" y="-20.0"/>
      <point x="1284.0" y="172.0"/>
      <point x="1284.0" y="509.0" type="curve" smooth="yes"/>
      <point x="1284.0" y="1249.0" type="line"/>
      <point x="1442.0" y="1301.0" type="line"/>
      <point x="1442.0" y="1340.0" type="line"/>
      <point x="1030.0" y="1340.0" type="line"/>
      <point x="1030.0" y="1301.0" type="line"/>
      <point x="1188.0" y="1249.0" type="line"/>
    </contour>
    <contour>
      <point x="792.0" y="-133.0" type="curve" smooth="yes"/>
      <point x="881.0" y="46.0" type="line"/>
      <point x="828.0" y="46.0" type="line"/>
      <point x="713.0" y="-124.0" type="line" smooth="yes"/>
      <point x="638.0" y="-234.0"/>
      <point x="621.0" y="-297.0"/>
      <point x="621.0" y="-361.0" type="curve" smooth="yes"/>
      <point x="621.0" y="-467.0"/>
      <point x="694.0" y="-530.0"/>
      <point x="791.0" y="-530.0" type="curve" smooth="yes"/>
      <point x="880.0" y="-530.0"/>
      <point x="953.0" y="-484.0"/>
      <point x="1029.0" y="-370.0" type="curve"/>
      <point x="1000.0" y="-342.0" type="line"/>
      <point x="932.0" y="-413.0"/>
      <point x="889.0" y="-430.0"/>
      <point x="846.0" y="-430.0" type="curve" smooth="yes"/>
      <point x="783.0" y="-430.0"/>
      <point x="738.0" y="-392.0"/>
      <point x="738.0" y="-324.0" type="curve" smooth="yes"/>
      <point x="738.0" y="-274.0"/>
      <point x="751.0" y="-216.0"/>
    </contour>
  </outline>
</glyph>
<glyph name="uni0259" format="2">
  <advance width="879"/>
  <unicode hex="0259"/>
  <outline>
    <contour>
      <point x="405.0" y="-20.0" type="curve" smooth="yes"/>
      <point x="654.0" y="-20.0"/>
      <point x="804.0" y="187.0"/>
      <point x="804.0" y="438.0" type="curve" smooth="yes"/>
      <point x="804.0" y="688.0"/>
      <point x="635.0" y="872.0"/>
      <point x="403.0" y="872.0" type="curve" smooth="yes"/>
      <point x="269.0" y="872.0"/>
      <point x="166.0" y="814.0"/>
      <point x="66.0" y="690.0" type="curve"/>
      <point x="91.0" y="663.0" type="line"/>
      <point x="160.0" y="721.0"/>
      <point x="233.0" y="752.0"/>
      <point x="308.0" y="752.0" type="curve" smooth="yes"/>
      <point x="516.0" y="752.0"/>
      <point x="655.0" y="613.0"/>
      <point x="655.0" y="391.0" type="curve" smooth="yes"/>
      <point x="655.0" y="178.0"/>
      <point x="561.0" y="59.0"/>
      <point x="420.0" y="59.0" type="curve" smooth="yes"/>
      <point x="303.0" y="59.0"/>
      <point x="249.0" y="158.0"/>
      <point x="235.0" y="301.0" type="curve"/>
      <point x="167.0" y="259.0" type="line"/>
      <point x="681.0" y="283.0" type="line"/>
      <point x="683.0" y="350.0" type="line"/>
      <point x="71.0" y="350.0" type="line"/>
      <point x="92.0" y="113.0"/>
      <point x="211.0" y="-20.0"/>
    </contour>
  </outline>
</glyph>
<glyph name="uni0302" format="2">
  <unicode hex="0302"/>
  <anchor x="0" y="852.0" name="_top"/>
  <anchor x="0" y="1340" name="top"/>
  <outline>
    <contour>
      <point x="-276.0" y="1009.0" type="line"/>
      <point x="-211.0" y="1009.0" type="line"/>
      <point x="13.0" y="1214.0" type="line"/>
      <point x="-13.0" y="1214.0" type="line"/>
      <point x="211.0" y="1009.0" type="line"/>
      <point x="276.0" y="1009.0" type="line"/>
      <point x="81.0" y="1340.0" type="line"/>
      <point x="-81.0" y="1340.0" type="line"/>
    </contour>
  </outline>
</glyph>
<glyph name="uni0304" format="2">
  <unicode hex="0304"/>
  <anchor x="0" y="852.0" name="_top"/>
  <anchor x="0" y="1340" name="top"/>
  <outline>
    <contour>
      <point x="-250.0" y="1122.0" type="line"/>
      <point x="250.0" y="1122.0" type="line"/>
      <point x="250.0" y="1228.0" type="line"/>
      <point x="-250.0" y="1228.0" type="line"/>
    </contour>
  </outline>
</glyph>
<glyph name="uni0308" format="2">
  <unicode hex="0308"/>
  <anchor x="0" y="852.0" name="_top"/>
  <anchor x="0" y="1255" name="top"/>
  <outline>
    <contour>
      <point x="-181.0" y="1066.0" type="curve" smooth="yes"/>
      <point x="-116.0" y="1066.0"/>
      <point x="-71.0" y="1115.0"/>
      <point x="-71.0" y="1175.0" type="curve" smooth="yes"/>
      <point x="-71.0" y="1235.0"/>
      <point x="-116.0" y="1284.0"/>
      <point x="-181.0" y="1284.0" type="curve" smooth="yes"/>
      <point x="-246.0" y="1284.0"/>
      <point x="-291.0" y="1235.0"/>
      <point x="-291.0" y="1175.0" type="curve" smooth="yes"/>
      <point x="-291.0" y="1115.0"/>
      <point x="-246.0" y="1066.0"/>
    </contour>
    <contour>
      <point x="181.0" y="1066.0" type="curve" smooth="yes"/>
      <point x="246.0" y="1066.0"/>
      <point x="291.0" y="1115.0"/>
      <point x="291.0" y="1175.0" type="curve" smooth="yes"/>
      <point x="291.0" y="1235.0"/>
      <point x="246.0" y="1284.0"/>
      <point x="181.0" y="1284.0" type="curve" smooth="yes"/>
      <point x="116.0" y="1284.0"/>
      <point x="71.0" y="1235.0"/>
      <point x="71.0" y="1175.0" type="curve" smooth="yes"/>
      <point x="71.0" y="1115.0"/>
      <point x="116.0" y="1066.0"/>
    </contour>
  </outline>
</glyph>
<glyph name="uni030A" format="2">
  <unicode hex="030A"/>
  <anchor x="0" y="852.0" name="_top"/>
  <anchor x="0" y="1340" name="top"/>
  <outline>
    <contour>
      <point x="0.0" y="1350.0" type="curve" smooth="yes"/>
      <point x="-102.0" y="1350.0"/>
      <point x="-177.0" y="1276.0"/>
      <point x="-177.0" y="1175.0" type="curve" smooth="yes"/>
      <point x="-177.0" y="1074.0"/>
      <point x="-102.0" y="1000.0"/>
      <point x="0.0" y="1000.0" type="curve" smooth="yes"/>
      <point x="102.0" y="1000.0"/>
      <point x="177.0" y="1074.0"/>
      <point x="177.0" y="1175.0" type="curve" smooth="yes"/>
      <point x="177.0" y="1276.0"/>
      <point x="102.0" y="1350.0"/>
    </contour>
    <contour>
      <point x="0.0" y="1061.0" type="curve" smooth="yes"/>
      <point x="-65.0" y="1061.0"/>
      <point x="-112.0" y="1108.0"/>
      <point x="-112.0" y="1175.0" type="curve" smooth="yes"/>
      <point x="-112.0" y="1242.0"/>
      <point x="-65.0" y="1289.0"/>
      <point x="0.0" y="1289.0" type="curve" smooth="yes"/>
      <point x="65.0" y="1289.0"/>
      <point x="112.0" y="1242.0"/>
      <point x="112.0" y="1175.0" type="curve" smooth="yes"/>
      <point x="112.0" y="1108.0"/>
      <point x="65.0" y="1061.0"/>
    </contour>
  </outline>
</glyph>
<glyph name="uni030B" format="2">
  <unicode hex="030B"/>
  <anchor x="0" y="852.0" name="_top"/>
  <anchor x="0" y="1340" name="top"/>
  <outline>
    <contour>
      <point x="72.0" y="1009.0" type="line"/>
      <point x="137.0" y="1009.0" type="line"/>
      <point x="427.0" y="1320.0" type="line"/>
      <point x="427.0" y="1340.0" type="line"/>
      <point x="216.0" y="1340.0" type="line"/>
    </contour>
    <contour>
      <point x="-168.0" y="1009.0" type="line"/>
      <point x="-115.0" y="1009.0" type="line"/>
      <point x="100.0" y="1320.0" type="line"/>
      <point x="100.0" y="1340.0" type="line"/>
      <point x="-98.0" y="1340.0" type="line"/>
    </contour>
  </outline>
</glyph>
<glyph name="uni0312" format="2">
  <unicode hex="0312"/>
  <guideline x="234" y="1009" angle="0" identifier="YB0H9XixKb"/>
  <guideline x="271" y="999" angle="0" identifier="JfbZWZIMKl"/>
  <anchor x="0" y="852.0" name="_top"/>
  <anchor x="-2" y="1340" name="top"/>
  <outline>
    <contour>
      <point x="116.0" y="1116.0" type="curve" smooth="yes"/>
      <point x="116.0" y="1141.0"/>
      <point x="-9.0" y="1163.0"/>
      <point x="-9.0" y="1209.0" type="curve" smooth="yes"/>
      <point x="-9.0" y="1240.0"/>
      <point x="11.0" y="1273.0"/>
      <point x="134.0" y="1300.0" type="curve"/>
      <point x="121.0" y="1360.0" type="line"/>
      <point x="-74.0" y="1324.0"/>
      <point x="-135.0" y="1234.0"/>
      <point x="-135.0" y="1135.0" type="curve" smooth="yes"/>
      <point x="-135.0" y="1051.0"/>
      <point x="-83.0" y="999.0"/>
      <point x="-7.0" y="999.0" type="curve" smooth="yes"/>
      <point x="59.0" y="999.0"/>
      <point x="116.0" y="1044.0"/>
    </contour>
  </outline>
</glyph>
<glyph name="emdash" format="2">
  <advance width="1358"/>
  <unicode hex="2014"/>
  <outline>
    <contour>
      <point x="104.0" y="484.0" type="line"/>
      <point x="104.0" y="388.0" type="line"/>
      <point x="1254.0" y="388.0" type="line"/>
      <point x="1254.0" y="484.0" type="line"/>
    </contour>
  </outline>
</glyph>
<glyph name="quoteright" format="2">
  <advance width="455"/>
  <unicode hex="2019"/>
  <outline>
    <contour>
      <point x="89.0" y="921.0" type="curve"/>
      <point x="120.0" y="858.0" type="line"/>
      <point x="313.0" y="947.0"/>
      <point x="380.0" y="1044.1337209302326"/>
      <point x="380.0" y="1195.0" type="curve" smooth="yes"/>
      <point x="380.0" y="1295.0"/>
      <point x="321.0" y="1350.0"/>
      <point x="247.0" y="1350.0" type="curve" smooth="yes"/>
      <point x="172.0" y="1350.0"/>
      <point x="123.0" y="1300.0"/>
      <point x="123.0" y="1232.0" type="curve" smooth="yes"/>
      <point x="123.0" y="1191.0"/>
      <point x="259.0" y="1168.0"/>
      <point x="259.0" y="1092.0" type="curve" smooth="yes"/>
      <point x="259.0" y="1032.0"/>
      <point x="216.0" y="975.0"/>
    </contour>
  </outline>
</glyph>
<glyph name="zerosuperior" format="2">
  <advance width="711"/>
  <unicode hex="2070"/>
  <outline>
    <contour>
      <point x="357.0" y="652.0" type="curve" smooth="yes"/>
      <point x="264.0" y="652.0"/>
      <point x="211.0" y="776.0"/>
      <point x="211.0" y="981.0" type="curve" smooth="yes"/>
      <point x="211.0" y="1166.0"/>
      <point x="262.0" y="1280.0"/>
      <point x="354.0" y="1280.0" type="curve" smooth="yes"/>
      <point x="447.0" y="1280.0"/>
      <point x="498.0" y="1156.0"/>
      <point x="498.0" y="952.0" type="curve" smooth="yes"/>
      <point x="498.0" y="766.0"/>
      <point x="448.0" y="652.0"/>
    </contour>
    <contour>
      <point x="356.0" y="582.0" type="curve" smooth="yes"/>
      <point x="528.0" y="582.0"/>
      <point x="642.0" y="738.0"/>
      <point x="642.0" y="967.0" type="curve" smooth="yes"/>
      <point x="642.0" y="1196.0"/>
      <point x="528.0" y="1350.0"/>
      <point x="356.0" y="1350.0" type="curve" smooth="yes"/>
      <point x="185.0" y="1350.0"/>
      <point x="69.0" y="1194.0"/>
      <point x="69.0" y="965.0" type="curve" smooth="yes"/>
      <point x="69.0" y="736.0"/>
      <point x="185.0" y="582.0"/>
    </contour>
  </outline>
</glyph>
<glyph name="peseta" format="2">
  <advance width="1100"/>
  <unicode hex="20A7"/>
  <outline>
    <contour>
      <point x="203.0" y="77.0" type="line"/>
      <point x="203.0" y="1340.0" type="line"/>
      <point x="-38.0" y="1340.0" type="line"/>
      <point x="-38.0" y="1305.0" type="line"/>
      <point x="63.0" y="1263.0" type="line"/>
      <point x="63.0" y="77.0" type="line"/>
      <point x="-38.0" y="35.0" type="line"/>
      <point x="-38.0" y="0.0" type="line"/>
      <point x="304.0" y="0.0" type="line"/>
      <point x="304.0" y="35.0" type="line"/>
    </contour>
    <contour>
      <point x="550.0" y="138.0" type="line" smooth="yes"/>
      <point x="550.0" y="28.0"/>
      <point x="585.0" y="-16.0"/>
      <point x="665.0" y="-16.0" type="curve" smooth="yes"/>
      <point x="698.0" y="-16.0"/>
      <point x="747.0" y="2.0"/>
      <point x="812.0" y="64.0" type="curve"/>
      <point x="812.0" y="113.0" type="line"/>
      <point x="780.0" y="98.0"/>
      <point x="761.0" y="96.0"/>
      <point x="739.0" y="96.0" type="curve" smooth="yes"/>
      <point x="698.0" y="96.0"/>
      <point x="680.0" y="113.0"/>
      <point x="680.0" y="172.0" type="curve" smooth="yes"/>
      <point x="680.0" y="1020.0" type="line"/>
      <point x="622.0" y="1020.0" type="line"/>
      <point x="600.0" y="922.0"/>
      <point x="580.0" y="873.0"/>
      <point x="503.0" y="840.0" type="curve"/>
      <point x="503.0" y="778.0" type="line"/>
      <point x="550.0" y="778.0" type="line"/>
    </contour>
    <contour>
      <point x="645.0" y="778.0" type="line"/>
      <point x="771.0" y="778.0" type="line"/>
      <point x="780.0" y="884.0" type="line"/>
      <point x="645.0" y="884.0" type="line"/>
    </contour>
    <contour>
      <point x="1035.0" y="905.0" type="curve" smooth="yes"/>
      <point x="919.0" y="905.0"/>
      <point x="839.0" y="819.0"/>
      <point x="839.0" y="662.0" type="curve" smooth="yes"/>
      <point x="839.0" y="373.0"/>
      <point x="1041.0" y="423.0"/>
      <point x="1041.0" y="188.0" type="curve" smooth="yes"/>
      <point x="1041.0" y="108.0"/>
      <point x="1008.0" y="77.0"/>
      <point x="945.0" y="77.0" type="curve" smooth="yes"/>
      <point x="932.0" y="77.0"/>
      <point x="920.0" y="78.0"/>
      <point x="905.0" y="86.0" type="curve"/>
      <point x="949.0" y="14.0" type="line"/>
      <point x="883.0" y="260.0" type="line"/>
      <point x="838.0" y="260.0" type="line"/>
      <point x="857.0" y="5.0" type="line"/>
      <point x="886.0" y="-9.0"/>
      <point x="923.0" y="-15.0"/>
      <point x="954.0" y="-15.0" type="curve" smooth="yes"/>
      <point x="1071.0" y="-15.0"/>
      <point x="1153.0" y="60.0"/>
      <point x="1153.0" y="234.0" type="curve" smooth="yes"/>
      <point x="1153.0" y="530.0"/>
      <point x="947.0" y="518.0"/>
      <point x="947.0" y="708.0" type="curve" smooth="yes"/>
      <point x="947.0" y="779.0"/>
      <point x="972.0" y="813.0"/>
      <point x="1032.0" y="813.0" type="curve" smooth="yes"/>
      <point x="1045.0" y="813.0"/>
      <point x="1055.0" y="810.0"/>
      <point x="1066.0" y="804.0" type="curve"/>
      <point x="1039.0" y="859.0" type="line"/>
      <point x="1091.0" y="635.0" type="line"/>
      <point x="1135.0" y="635.0" type="line"/>
      <point x="1127.0" y="882.0" type="line"/>
      <point x="1102.0" y="896.0"/>
      <point x="1073.0" y="905.0"/>
    </contour>
    <contour>
      <point x="195.0" y="1261.0" type="line" smooth="yes"/>
      <point x="326.0" y="1261.0"/>
      <point x="355.0" y="1155.0"/>
      <point x="355.0" y="982.0" type="curve" smooth="yes"/>
      <point x="355.0" y="769.0"/>
      <point x="313.0" y="708.0"/>
      <point x="208.0" y="708.0" type="curve" smooth="yes"/>
      <point x="147.0" y="708.0" type="line"/>
      <point x="113.0" y="629.0" type="line"/>
      <point x="206.0" y="629.0" type="line" smooth="yes"/>
      <point x="408.0" y="629.0"/>
      <point x="493.0" y="780.0"/>
      <point x="493.0" y="994.0" type="curve" smooth="yes"/>
      <point x="493.0" y="1218.0"/>
      <point x="400.0" y="1340.0"/>
      <point x="215.0" y="1340.0" type="curve" smooth="yes"/>
      <point x="113.0" y="1340.0" type="line"/>
      <point x="147.0" y="1261.0" type="line"/>
    </contour>
  </outline>
</glyph>
<glyph name="minus" format="2">
  <advance width="1000"/>
  <unicode hex="2212"/>
  <outline>
    <contour>
      <point x="143.0" y="478.0" type="line"/>
      <point x="143.0" y="394.0" type="line"/>
      <point x="857.0" y="394.0" type="line"/>
      <point x="857.0" y="478.0" type="line"/>
    </contour>
  </outline>
</glyph>
<glyph name="notequal" format="2">
  <advance width="1000"/>
  <unicode hex="2260"/>
  <outline>
    <contour>
      <point x="143.0" y="0.0" type="line"/>
      <point x="231.0" y="0.0" type="line"/>
      <point x="857.0" y="852.0" type="line"/>
      <point x="769.0" y="852.0" type="line"/>
    </contour>
    <contour>
      <point x="143.0" y="648.0" type="line"/>
      <point x="143.0" y="564.0" type="line"/>
      <point x="857.0" y="564.0" type="line"/>
      <point x="857.0" y="648.0" type="line"/>
    </contour>
    <contour>
      <point x="143.0" y="308.0" type="line"/>
      <point x="143.0" y="224.0" type="line"/>
      <point x="857.0" y="224.0" type="line"/>
      <point x="857.0" y="308.0" type="line"/>
    </contour>
  </outline>
</glyph>
<glyph name="lessequal" format="2">
  <advance width="1000"/>
  <unicode hex="2264"/>
  <guideline x="102.0" y="537" angle="171.06546774385063" identifier="lSoU5BQQoe"/>
  <outline>
    <contour>
      <point x="47.0" y="84.0" type="line"/>
      <point x="47.0" y="0.0" type="line"/>
      <point x="947.0" y="0.0" type="line"/>
      <point x="947.0" y="84.0" type="line"/>
    </contour>
    <contour>
      <point x="47.0" y="508.0" type="line"/>
      <point x="947.0" y="201.0" type="line"/>
      <point x="947.0" y="290.0" type="line"/>
      <point x="140.0" y="555.0" type="line"/>
      <point x="140.0" y="538.0" type="line"/>
      <point x="947.0" y="803.0" type="line"/>
      <point x="947.0" y="892.0" type="line"/>
      <point x="47.0" y="585.0" type="line"/>
    </contour>
  </outline>
</glyph>
<glyph name="f_f" format="2">
  <advance width="1232"/>
  <unicode hex="FB00"/>
  <outline>
    <contour>
      <point x="526.0" y="0.0" type="line"/>
      <point x="526.0" y="37.0" type="line"/>
      <point x="355.0" y="85.0" type="line"/>
      <point x="355.0" y="983.0" type="line" smooth="yes"/>
      <point x="355.0" y="1198.0"/>
      <point x="480.0" y="1314.0"/>
      <point x="651.0" y="1314.0" type="curve" smooth="yes"/>
      <point x="740.0" y="1314.0"/>
      <point x="813.0" y="1277.0"/>
      <point x="892.0" y="1178.0" type="curve"/>
      <point x="996.0" y="1306.0" type="line"/>
      <point x="917.0" y="1368.0"/>
      <point x="828.0" y="1399.0"/>
      <point x="717.0" y="1399.0" type="curve" smooth="yes"/>
      <point x="473.0" y="1399.0"/>
      <point x="209.0" y="1239.0"/>
      <point x="209.0" y="888.0" type="curve" smooth="yes"/>
      <point x="209.0" y="85.0" type="line"/>
      <point x="57.0" y="37.0" type="line"/>
      <point x="57.0" y="0.0" type="line"/>
    </contour>
    <contour>
      <point x="1193.0" y="760.0" type="line"/>
      <point x="1211.0" y="852.0" type="line"/>
      <point x="270.0" y="852.0" type="line"/>
      <point x="223.0" y="852.0" type="line"/>
      <point x="39.0" y="791.0" type="line"/>
      <point x="39.0" y="760.0" type="line"/>
      <point x="209.0" y="736.0" type="line"/>
      <point x="248.0" y="760.0" type="line"/>
    </contour>
    <contour>
      <point x="939.0" y="85.0" type="line"/>
      <point x="939.0" y="993.0" type="line" smooth="yes"/>
      <point x="939.0" y="1241.0"/>
      <point x="1061.0" y="1322.0"/>
      <point x="1188.0" y="1322.0" type="curve" smooth="yes"/>
      <point x="1295.0" y="1322.0"/>
      <point x="1309.0" y="1230.0"/>
      <point x="1401.0" y="1230.0" type="curve" smooth="yes"/>
      <point x="1453.0" y="1230.0"/>
      <point x="1495.0" y="1267.0"/>
      <point x="1495.0" y="1321.0" type="curve" smooth="yes"/>
      <point x="1495.0" y="1373.0"/>
      <point x="1444.0" y="1419.0"/>
      <point x="1311.0" y="1419.0" type="curve" smooth="yes"/>
      <point x="1062.0" y="1419.0"/>
      <point x="793.0" y="1270.0"/>
      <point x="793.0" y="889.0" type="curve" smooth="yes"/>
      <point x="793.0" y="85.0" type="line"/>
      <point x="641.0" y="37.0" type="line"/>
      <point x="641.0" y="0.0" type="line"/>
      <point x="1110.0" y="0.0" type="line"/>
      <point x="1110.0" y="37.0" type="line"/>
    </contour>
  </outline>
</glyph>
<glyph name="fi" format="2">
  <advance width="1123"/>
  <unicode hex="FB01"/>
  <outline>
    <contour>
      <point x="849.0" y="760.0" type="line"/>
      <point x="793.0" y="801.0" type="line"/>
      <point x="793.0" y="85.0" type="line"/>
      <point x="641.0" y="37.0" type="line"/>
      <point x="641.0" y="0.0" type="line"/>
      <point x="1094.0" y="0.0" type="line"/>
      <point x="1094.0" y="37.0" type="line"/>
      <point x="939.0" y="85.0" type="line"/>
      <point x="939.0" y="710.0" type="line"/>
      <point x="945.0" y="872.0" type="line"/>
      <point x="927.0" y="872.0" type="line"/>
      <point x="703.0" y="852.0" type="line"/>
      <point x="256.0" y="852.0" type="line"/>
      <point x="223.0" y="852.0" type="line"/>
      <point x="39.0" y="791.0" type="line"/>
      <point x="39.0" y="760.0" type="line"/>
      <point x="209.0" y="736.0" type="line"/>
      <point x="248.0" y="760.0" type="line"/>
    </contour>
    <contour>
      <point x="355.0" y="85.0" type="line"/>
      <point x="355.0" y="993.0" type="line" smooth="yes"/>
      <point x="355.0" y="1241.0"/>
      <point x="477.0" y="1322.0"/>
      <point x="604.0" y="1322.0" type="curve" smooth="yes"/>
      <point x="711.0" y="1322.0"/>
      <point x="725.0" y="1230.0"/>
      <point x="817.0" y="1230.0" type="curve" smooth="yes"/>
      <point x="869.0" y="1230.0"/>
      <point x="911.0" y="1267.0"/>
      <point x="911.0" y="1321.0" type="curve" smooth="yes"/>
      <point x="911.0" y="1373.0"/>
      <point x="860.0" y="1419.0"/>
      <point x="727.0" y="1419.0" type="curve" smooth="yes"/>
      <point x="478.0" y="1419.0"/>
      <point x="209.0" y="1270.0"/>
      <point x="209.0" y="889.0" type="curve" smooth="yes"/>
      <point x="209.0" y="85.0" type="line"/>
      <point x="57.0" y="37.0" type="line"/>
      <point x="57.0" y="0.0" type="line"/>
      <point x="526.0" y="0.0" type="line"/>
      <point x="526.0" y="37.0" type="line"/>
    </contour>
  </outline>
</glyph>
<glyph name="fl" format="2">
  <advance width="1123"/>
  <unicode hex="FB02"/>
  <outline>
    <contour>
      <point x="355.0" y="85.0" type="line"/>
      <point x="355.0" y="993.0" type="line" smooth="yes"/>
      <point x="355.0" y="1244.0"/>
      <point x="483.0" y="1326.0"/>
      <point x="626.0" y="1326.0" type="curve" smooth="yes"/>
      <point x="733.0" y="1326.0"/>
      <point x="793.0" y="1286.0"/>
      <point x="793.0" y="1224.0" type="curve" smooth="yes"/>
      <point x="793.0" y="85.0" type="line"/>
      <point x="641.0" y="37.0" type="line"/>
      <point x="641.0" y="0.0" type="line"/>
      <point x="1094.0" y="0.0" type="line"/>
      <point x="1094.0" y="37.0" type="line"/>
      <point x="939.0" y="85.0" type="line"/>
      <point x="939.0" y="1259.0" type="line"/>
      <point x="949.0" y="1419.0" type="line"/>
      <point x="929.0" y="1419.0" type="line"/>
      <point x="808.0" y="1344.0" type="line"/>
      <point x="910.0" y="1349.0" type="line"/>
      <point x="854.0" y="1393.0"/>
      <point x="771.0" y="1411.0"/>
      <point x="666.0" y="1411.0" type="curve" smooth="yes"/>
      <point x="480.0" y="1411.0"/>
      <point x="209.0" y="1266.0"/>
      <point x="209.0" y="889.0" type="curve" smooth="yes"/>
      <point x="209.0" y="85.0" type="line"/>
      <point x="57.0" y="37.0" type="line"/>
      <point x="57.0" y="0.0" type="line"/>
      <point x="526.0" y="0.0" type="line"/>
      <point x="526.0" y="37.0" type="line"/>
    </contour>
    <contour>
      <point x="627.0" y="852.0" type="line"/>
      <point x="270.0" y="852.0" type="line"/>
      <point x="223.0" y="852.0" type="line"/>
      <point x="39.0" y="791.0" type="line"/>
      <point x="39.0" y="760.0" type="line"/>
      <point x="209.0" y="736.0" type="line"/>
      <point x="248.0" y="760.0" type="line"/>
      <point x="609.0" y="760.0" type="line"/>
    </contour>
  </outline>
</glyph>
<glyph name="colonmonetary.lf.1" format="2">
  <advance width="1062"/>
  <outline>
    <contour>
      <point x="623.0" y="1278.0" type="curve" smooth="yes"/>
      <point x="796.0" y="1278.0"/>
      <point x="792.0" y="1124.0"/>
      <point x="903.0" y="1124.0" type="curve" smooth="yes"/>
      <point x="951.0" y="1124.0"/>
      <point x="989.0" y="1159.0"/>
      <point x="989.0" y="1205.0" type="curve" smooth="yes"/>
      <point x="989.0" y="1281.0"/>
      <point x="901.0" y="1360.0"/>
      <point x="684.0" y="1360.0" type="curve" smooth="yes"/>
      <point x="308.0" y="1360.0"/>
      <point x="109.0" y="1024.0"/>
      <point x="109.0" y="634.0" type="curve" smooth="yes"/>
      <point x="109.0" y="256.0"/>
      <point x="296.0" y="-20.0"/>
      <point x="578.0" y="-20.0" type="curve" smooth="yes"/>
      <point x="721.0" y="-20.0"/>
      <point x="831.0" y="37.0"/>
      <point x="971.0" y="187.0" type="curve"/>
      <point x="944.0" y="221.0" type="line"/>
      <point x="850.0" y="139.0"/>
      <point x="755.0" y="111.0"/>
      <point x="662.0" y="111.0" type="curve" smooth="yes"/>
      <point x="399.0" y="111.0"/>
      <point x="245.0" y="354.0"/>
      <point x="245.0" y="747.0" type="curve" smooth="yes"/>
      <point x="245.0" y="1106.0"/>
      <point x="416.0" y="1278.0"/>
    </contour>
    <contour>
      <point x="638.0" y="1303.0" type="line"/>
      <point x="689.0" y="1535.0" type="line"/>
      <point x="613.0" y="1535.0" type="line"/>
      <point x="562.0" y="1303.0" type="line"/>
    </contour>
    <contour>
      <point x="344.0" y="143.0" type="line"/>
      <point x="269.0" y="-195.0" type="line"/>
      <point x="345.0" y="-195.0" type="line"/>
      <point x="420.0" y="143.0" type="line"/>
    </contour>
    <contour>
      <point x="827.0" y="1303.0" type="line"/>
      <point x="878.0" y="1535.0" type="line"/>
      <point x="802.0" y="1535.0" type="line"/>
      <point x="751.0" y="1303.0" type="line"/>
    </contour>
    <contour>
      <point x="516.0" y="65.0" type="line"/>
      <point x="458.0" y="-195.0" type="line"/>
      <point x="534.0" y="-195.0" type="line"/>
      <point x="592.0" y="65.0" type="line"/>
    </contour>
  </outline>
</glyph>
<glyph name="five.lf" format="2">
  <advance width="977"/>
  <outline>
    <contour>
      <point x="275.0" y="-20.0" type="curve" smooth="yes"/>
      <point x="605.0" y="-20.0"/>
      <point x="860.0" y="181.0"/>
      <point x="860.0" y="464.0" type="curve" smooth="yes"/>
      <point x="860.0" y="699.0"/>
      <point x="725.0" y="893.0"/>
      <point x="227.0" y="924.0" type="curve"/>
      <point x="233.0" y="817.0" type="line"/>
      <point x="351.0" y="1224.0" type="line"/>
      <point x="296.0" y="1194.0" type="line"/>
      <point x="868.0" y="1194.0" type="line"/>
      <point x="925.0" y="1378.0" type="line"/>
      <point x="670.0" y="1340.0" type="line"/>
      <point x="303.0" y="1340.0" type="line"/>
      <point x="145.0" y="769.0" type="line"/>
      <point x="632.0" y="755.0"/>
      <point x="731.0" y="597.0"/>
      <point x="731.0" y="416.0" type="curve" smooth="yes"/>
      <point x="731.0" y="191.0"/>
      <point x="571.0" y="71.0"/>
      <point x="402.0" y="71.0" type="curve" smooth="yes"/>
      <point x="265.0" y="71.0"/>
      <point x="207.0" y="186.0"/>
      <point x="129.0" y="186.0" type="curve" smooth="yes"/>
      <point x="86.0" y="186.0"/>
      <point x="44.0" y="155.0"/>
      <point x="44.0" y="100.0" type="curve" smooth="yes"/>
      <point x="44.0" y="39.0"/>
      <point x="109.0" y="-20.0"/>
    </contour>
  </outline>
</glyph>
<glyph name="florin.lf" format="2">
  <advance width="1387"/>
  <outline>
    <contour>
      <point x="350.0" y="634.0" type="line"/>
      <point x="1072.0" y="634.0" type="line"/>
      <point x="1072.0" y="712.0" type="line"/>
      <point x="350.0" y="712.0" type="line"/>
    </contour>
    <contour>
      <point x="230.0" y="-270.0" type="curve" smooth="yes"/>
      <point x="452.0" y="-270.0"/>
      <point x="648.6732567216892" y="-91.40353381144791"/>
      <point x="733.0" y="453.0" type="curve" smooth="yes"/>
      <point x="801.0" y="892.0" type="line" smooth="yes"/>
      <point x="848.0" y="1193.0"/>
      <point x="908.0" y="1257.0"/>
      <point x="1043.0" y="1257.0" type="curve" smooth="yes"/>
      <point x="1167.0" y="1257.0"/>
      <point x="1201.0" y="1150.0"/>
      <point x="1257.0" y="1150.0" type="curve" smooth="yes"/>
      <point x="1306.0" y="1150.0"/>
      <point x="1342.0" y="1182.0"/>
      <point x="1342.0" y="1230.0" type="curve" smooth="yes"/>
      <point x="1342.0" y="1296.0"/>
      <point x="1275.0" y="1351.0"/>
      <point x="1149.0" y="1351.0" type="curve" smooth="yes"/>
      <point x="926.0" y="1351.0"/>
      <point x="712.0" y="1206.0"/>
      <point x="647.0" y="792.0" type="curve" smooth="yes"/>
      <point x="574.0" y="326.0" type="line" smooth="yes"/>
      <point x="507.84213429126544" y="-96.32281397630544"/>
      <point x="421.0" y="-177.0"/>
      <point x="318.0" y="-177.0" type="curve" smooth="yes"/>
      <point x="208.0" y="-177.0"/>
      <point x="177.60591133004925" y="-79.0"/>
      <point x="128.0" y="-79.0" type="curve" smooth="yes"/>
      <point x="81.0" y="-79.0"/>
      <point x="47.0" y="-109.0"/>
      <point x="47.0" y="-155.0" type="curve" smooth="yes"/>
      <point x="47.0" y="-218.0"/>
      <point x="110.0" y="-270.0"/>
    </contour>
  </outline>
</glyph>
<glyph name="hookabovecomb.case" format="2">
  <anchor x="0" y="1340.0" name="_UCtop"/>
  <anchor x="0" y="1716" name="UCtop"/>
  <outline>
    <contour>
      <point x="-146.0" y="1660.0" type="line"/>
      <point x="16.0" y="1646.0"/>
      <point x="49.0" y="1620.0"/>
      <point x="49.0" y="1581.0" type="curve" smooth="yes"/>
      <point x="49.0" y="1538.0"/>
      <point x="23.0" y="1517.0"/>
      <point x="-78.0" y="1500.0" type="curve"/>
      <point x="-68.0" y="1443.0" type="line"/>
      <point x="136.0" y="1473.0"/>
      <point x="168.0" y="1540.0"/>
      <point x="168.0" y="1622.0" type="curve" smooth="yes"/>
      <point x="168.0" y="1706.0"/>
      <point x="102.0" y="1776.0"/>
      <point x="-121.0" y="1795.0" type="curve"/>
    </contour>
  </outline>
</glyph>
<glyph name="six.lf" format="2">
  <advance width="1039"/>
  <outline>
    <contour>
      <point x="840.0" y="1387.0" type="line"/>
      <point x="273.0" y="1199.0"/>
      <point x="94.0" y="897.0"/>
      <point x="94.0" y="523.0" type="curve" smooth="yes"/>
      <point x="94.0" y="225.0"/>
      <point x="257.0" y="-20.0"/>
      <point x="541.0" y="-20.0" type="curve" smooth="yes"/>
      <point x="799.0" y="-20.0"/>
      <point x="968.0" y="169.0"/>
      <point x="968.0" y="415.0" type="curve" smooth="yes"/>
      <point x="968.0" y="649.0"/>
      <point x="817.0" y="772.0"/>
      <point x="619.0" y="772.0" type="curve" smooth="yes"/>
      <point x="483.0" y="772.0"/>
      <point x="363.0" y="721.0"/>
      <point x="170.0" y="544.0" type="curve"/>
      <point x="224.0" y="524.0" type="line"/>
      <point x="316.0" y="609.0"/>
      <point x="447.0" y="663.0"/>
      <point x="569.0" y="663.0" type="curve" smooth="yes"/>
      <point x="740.0" y="663.0"/>
      <point x="826.0" y="553.0"/>
      <point x="826.0" y="365.0" type="curve" smooth="yes"/>
      <point x="826.0" y="173.0"/>
      <point x="726.0" y="58.0"/>
      <point x="548.0" y="58.0" type="curve" smooth="yes"/>
      <point x="342.0" y="58.0"/>
      <point x="249.0" y="266.27868852459017"/>
      <point x="249.0" y="542.0" type="curve" smooth="yes"/>
      <point x="249.0" y="959.0"/>
      <point x="447.0" y="1193.0"/>
      <point x="879.0" y="1334.0" type="curve"/>
    </contour>
  </outline>
</glyph>
<glyph name="tildecomb.case" format="2">
  <anchor x="0" y="1340.0" name="_UCtop"/>
  <anchor x="0" y="1677" name="UCtop"/>
  <outline>
    <contour>
      <point x="270.0" y="1716.0" type="curve"/>
      <point x="206.0" y="1716.0" type="line"/>
      <point x="179.0" y="1621.0"/>
      <point x="157.0" y="1604.0"/>
      <point x="127.0" y="1604.0" type="curve" smooth="yes"/>
      <point x="66.0" y="1604.0"/>
      <point x="-18.0" y="1724.0"/>
      <point x="-113.0" y="1724.0" type="curve" smooth="yes"/>
      <point x="-200.0" y="1724.0"/>
      <point x="-231.0" y="1678.0"/>
      <point x="-270.0" y="1476.0" type="curve"/>
      <point x="-206.0" y="1476.0" type="line"/>
      <point x="-179.0" y="1571.0"/>
      <point x="-157.0" y="1588.0"/>
      <point x="-127.0" y="1588.0" type="curve" smooth="yes"/>
      <point x="-66.0" y="1588.0"/>
      <point x="18.0" y="1468.0"/>
      <point x="113.0" y="1468.0" type="curve" smooth="yes"/>
      <point x="200.0" y="1468.0"/>
      <point x="231.0" y="1514.0"/>
    </contour>
  </outline>
</glyph>
<glyph name="uni0302_gravecomb.case" format="2">
  <anchor x="0" y="1340.0" name="_UCtop"/>
  <anchor x="-135" y="1817" name="UCtop"/>
  <outline>
    <contour>
      <point x="-230.0" y="1626.0" type="line"/>
      <point x="-320.0" y="1842.0" type="line"/>
      <point x="-545.0" y="1842.0" type="line"/>
      <point x="-545.0" y="1828.0" type="line"/>
      <point x="-288.0" y="1626.0" type="line"/>
    </contour>
    <contour>
      <point x="12.0" y="1606.0" type="line"/>
      <point x="-12.0" y="1606.0" type="line"/>
      <point x="211.0" y="1476.0" type="line"/>
      <point x="286.0" y="1476.0" type="line"/>
      <point x="76.0" y="1716.0" type="line"/>
      <point x="-76.0" y="1716.0" type="line"/>
      <point x="-286.0" y="1476.0" type="line"/>
      <point x="-211.0" y="1476.0" type="line"/>
    </contour>
  </outline>
</glyph>
<glyph name="uni0306_hookabovecomb.case" format="2">
  <anchor x="0" y="1340.0" name="_UCtop"/>
  <outline>
    <contour>
      <point x="0.0" y="1545.0" type="curve" smooth="yes"/>
      <point x="-113.0" y="1545.0"/>
      <point x="-173.0" y="1574.0"/>
      <point x="-194.0" y="1635.0" type="curve"/>
      <point x="-248.0" y="1635.0" type="line"/>
      <point x="-215.0" y="1493.0"/>
      <point x="-141.0" y="1428.0"/>
      <point x="0.0" y="1428.0" type="curve" smooth="yes"/>
      <point x="141.0" y="1428.0"/>
      <point x="215.0" y="1493.0"/>
      <point x="248.0" y="1635.0" type="curve"/>
      <point x="194.0" y="1635.0" type="line"/>
      <point x="173.0" y="1574.0"/>
      <point x="113.0" y="1545.0"/>
    </contour>
    <contour>
      <point x="-58.0" y="1643.0" type="curve"/>
      <point x="-55.0" y="1595.0" type="line"/>
      <point x="117.0" y="1597.0"/>
      <point x="167.0" y="1641.0"/>
      <point x="167.0" y="1733.0" type="curve" smooth="yes"/>
      <point x="167.0" y="1798.0"/>
      <point x="118.0" y="1862.0"/>
      <point x="-79.0" y="1876.0" type="curve"/>
      <point x="-93.0" y="1760.0" type="line"/>
      <point x="45.0" y="1745.0"/>
      <point x="64.0" y="1726.0"/>
      <point x="64.0" y="1696.0" type="curve" smooth="yes"/>
      <point x="64.0" y="1661.0"/>
      <point x="39.0" y="1650.0"/>
    </contour>
  </outline>
</glyph>
<glyph name="uni0308.case" format="2">
  <anchor x="0" y="1340.0" name="_UCtop"/>
  <anchor x="0" y="1677" name="UCtop"/>
  <outline>
    <contour>
      <point x="-181.0" y="1487.0" type="curve" smooth="yes"/>
      <point x="-116.0" y="1487.0"/>
      <point x="-71.0" y="1536.0"/>
      <point x="-71.0" y="1596.0" type="curve" smooth="yes"/>
      <point x="-71.0" y="1656.0"/>
      <point x="-116.0" y="1705.0"/>
      <point x="-181.0" y="1705.0" type="curve" smooth="yes"/>
      <point x="-246.0" y="1705.0"/>
      <point x="-291.0" y="1656.0"/>
      <point x="-291.0" y="1596.0" type="curve" smooth="yes"/>
      <point x="-291.0" y="1536.0"/>
      <point x="-246.0" y="1487.0"/>
    </contour>
    <contour>
      <point x="181.0" y="1487.0" type="curve" smooth="yes"/>
      <point x="246.0" y="1487.0"/>
      <point x="291.0" y="1536.0"/>
      <point x="291.0" y="1596.0" type="curve" smooth="yes"/>
      <point x="291.0" y="1656.0"/>
      <point x="246.0" y="1705.0"/>
      <point x="181.0" y="1705.0" type="curve" smooth="yes"/>
      <point x="116.0" y="1705.0"/>
      <point x="71.0" y="1656.0"/>
      <point x="71.0" y="1596.0" type="curve" smooth="yes"/>
      <point x="71.0" y="1536.0"/>
      <point x="116.0" y="1487.0"/>
    </contour>
  </outline>
</glyph>
<glyph name="uni030B.case" format="2">
  <anchor x="0" y="1340.0" name="_UCtop"/>
  <anchor x="0" y="1716" name="UCtop"/>
  <outline>
    <contour>
      <point x="92.0" y="1476.0" type="line"/>
      <point x="157.0" y="1476.0" type="line"/>
      <point x="473.0" y="1701.0" type="line"/>
      <point x="473.0" y="1716.0" type="line"/>
      <point x="242.0" y="1716.0" type="line"/>
    </contour>
    <contour>
      <point x="-148.0" y="1476.0" type="line"/>
      <point x="-95.0" y="1476.0" type="line"/>
      <point x="126.0" y="1701.0" type="line"/>
      <point x="126.0" y="1716.0" type="line"/>
      <point x="-85.0" y="1716.0" type="line"/>
    </contour>
  </outline>
</glyph>
<glyph name="uni0311.case" format="2">
  <anchor x="0" y="1340.0" name="_UCtop"/>
  <anchor x="0" y="1716" name="UCtop"/>
  <outline>
    <contour>
      <point x="0.0" y="1599.0" type="curve" smooth="yes"/>
      <point x="102.0" y="1599.0"/>
      <point x="179.0" y="1561.0"/>
      <point x="203.0" y="1476.0" type="curve"/>
      <point x="269.0" y="1476.0" type="line"/>
      <point x="223.0" y="1664.0"/>
      <point x="149.0" y="1723.0"/>
      <point x="0.0" y="1723.0" type="curve" smooth="yes"/>
      <point x="-149.0" y="1723.0"/>
      <point x="-223.0" y="1664.0"/>
      <point x="-269.0" y="1476.0" type="curve"/>
      <point x="-203.0" y="1476.0" type="line"/>
      <point x="-179.0" y="1561.0"/>
      <point x="-101.0" y="1599.0"/>
    </contour>
  </outline>
</glyph>
<glyph name="uni20BA.lf" format="2">
  <advance width="1155"/>
  <outline>
    <contour>
      <point x="1024.0" y="-59.0" type="line"/>
      <point x="1098.0" y="372.0" type="line"/>
      <point x="1063.0" y="379.0" type="line"/>
      <point x="874.0" y="65.0" type="line"/>
      <point x="1008.0" y="87.0" type="line"/>
      <point x="356.0" y="87.0" type="line"/>
      <point x="356.0" y="0.0" type="line"/>
      <point x="892.0" y="0.0" type="line"/>
      <point x="1003.0" y="-59.0" type="line"/>
    </contour>
    <contour>
      <point x="115.0" y="313.0" type="line"/>
      <point x="352.0" y="455.0" type="line"/>
      <point x="432.0" y="483.0" type="line"/>
      <point x="786.0" y="694.0" type="line"/>
      <point x="786.0" y="779.0" type="line"/>
      <point x="432.0" y="568.0" type="line"/>
      <point x="352.0" y="540.0" type="line"/>
      <point x="115.0" y="398.0" type="line"/>
    </contour>
    <contour>
      <point x="115.0" y="605.0" type="line"/>
      <point x="352.0" y="747.0" type="line"/>
      <point x="432.0" y="775.0" type="line"/>
      <point x="786.0" y="986.0" type="line"/>
      <point x="786.0" y="1071.0" type="line"/>
      <point x="432.0" y="860.0" type="line"/>
      <point x="352.0" y="832.0" type="line"/>
      <point x="115.0" y="690.0" type="line"/>
    </contour>
    <contour>
      <point x="141.0" y="0.0" type="line"/>
      <point x="456.0" y="0.0" type="line"/>
      <point x="456.0" y="1255.0" type="line"/>
      <point x="617.0" y="1303.0" type="line"/>
      <point x="617.0" y="1340.0" type="line"/>
      <point x="141.0" y="1340.0" type="line"/>
      <point x="141.0" y="1303.0" type="line"/>
      <point x="304.0" y="1255.0" type="line"/>
      <point x="304.0" y="85.0" type="line"/>
      <point x="141.0" y="37.0" type="line"/>
    </contour>
  </outline>
</glyph>
<glyph name="uni20BD.lf" format="2">
  <advance width="1129"/>
  <outline>
    <contour>
      <point x="940.0" y="592.0" type="line"/>
      <point x="111.0" y="592.0" type="line"/>
      <point x="111.0" y="514.0" type="line"/>
      <point x="940.0" y="514.0" type="line"/>
    </contour>
    <contour>
      <point x="703.0" y="774.0" type="line" smooth="yes"/>
      <point x="965.0" y="774.0"/>
      <point x="1067.0" y="908.0"/>
      <point x="1067.0" y="1067.0" type="curve" smooth="yes"/>
      <point x="1067.0" y="1220.0"/>
      <point x="970.0" y="1340.0"/>
      <point x="703.0" y="1340.0" type="curve" smooth="yes"/>
      <point x="354.0" y="1340.0" type="line"/>
      <point x="350.0" y="1253.0" type="line"/>
      <point x="620.0" y="1253.0" type="line" smooth="yes"/>
      <point x="839.0" y="1253.0"/>
      <point x="897.0" y="1187.0"/>
      <point x="897.0" y="1056.0" type="curve" smooth="yes"/>
      <point x="897.0" y="922.0"/>
      <point x="822.0" y="852.0"/>
      <point x="698.0" y="852.0" type="curve" smooth="yes"/>
      <point x="111.0" y="852.0" type="line"/>
      <point x="111.0" y="774.0" type="line"/>
    </contour>
    <contour>
      <point x="138.0" y="1340.0" type="line"/>
      <point x="138.0" y="1303.0" type="line"/>
      <point x="301.0" y="1255.0" type="line"/>
      <point x="301.0" y="85.0" type="line"/>
      <point x="138.0" y="37.0" type="line"/>
      <point x="138.0" y="0.0" type="line"/>
      <point x="614.0" y="0.0" type="line"/>
      <point x="614.0" y="37.0" type="line"/>
      <point x="453.0" y="85.0" type="line"/>
      <point x="453.0" y="1340.0" type="line"/>
    </contour>
  </outline>
</glyph>
